<svg width="585" height="571" viewBox="0 0 585 571" fill="none" xmlns="http://www.w3.org/2000/svg">
<g clip-path="url(#clip0_216_149)">
<g filter="url(#filter0_dd_216_149)">
<path d="M70.338 255.441C70.0537 255.442 69.7745 255.367 69.5294 255.223C62.7843 251.611 56.9526 250.079 49.9613 250.079C43.005 250.079 36.3997 251.794 30.3917 255.223C29.5421 255.703 28.495 255.368 28.0025 254.487C27.7827 254.062 27.7332 253.568 27.8639 253.108C27.9946 252.647 28.2958 252.253 28.7062 252.007C35.1859 248.332 42.5121 246.41 49.9613 246.432C57.4436 246.432 63.9789 248.146 71.1465 251.976C71.5647 252.206 71.8761 252.591 72.0139 253.048C72.1517 253.505 72.105 253.997 71.8837 254.42C71.7506 254.72 71.5343 254.976 71.2603 255.157C70.9864 255.338 70.6663 255.437 70.338 255.441ZM20.0628 274.592C19.6978 274.589 19.3424 274.474 19.0445 274.263C18.6571 273.975 18.3965 273.548 18.3177 273.072C18.2389 272.596 18.348 272.107 18.622 271.71C22.101 266.603 26.5252 262.591 31.7976 259.782C42.8287 253.879 56.9526 253.836 68.0187 259.746C73.2895 262.554 77.7153 266.53 81.1943 271.601C81.4672 271.998 81.5756 272.486 81.4969 272.962C81.4181 273.438 81.1583 273.865 80.7717 274.154C80.5842 274.294 80.3699 274.394 80.1421 274.448C79.9143 274.502 79.6778 274.509 79.4473 274.468C79.2168 274.427 78.9972 274.339 78.802 274.21C78.6068 274.08 78.4403 273.912 78.3126 273.716C75.1513 269.12 71.1465 265.509 66.4031 262.992C56.3204 257.63 43.426 257.63 33.3783 263.029C28.5998 265.582 24.595 269.23 21.4338 273.819C21.2974 274.061 21.0976 274.261 20.856 274.397C20.6143 274.533 20.34 274.6 20.0628 274.592ZM42.0201 318.625C41.7879 318.627 41.558 318.579 41.3458 318.485C41.1337 318.39 40.9443 318.252 40.7906 318.078C37.7341 314.898 36.0775 312.849 33.7293 308.442C31.2976 303.955 30.0407 298.484 30.0407 292.611C30.0407 281.777 38.9637 272.95 49.9264 272.95C60.8891 272.95 69.8182 281.777 69.8182 292.611C69.8251 292.846 69.7848 293.08 69.6996 293.299C69.6145 293.518 69.4862 293.718 69.3225 293.887C69.1587 294.055 68.9628 294.189 68.7463 294.281C68.5298 294.372 68.2971 294.42 68.062 294.42C67.8269 294.42 67.5942 294.372 67.3777 294.281C67.1612 294.189 66.9653 294.055 66.8015 293.887C66.6377 293.718 66.5095 293.518 66.4244 293.299C66.3392 293.08 66.2989 292.846 66.3058 292.611C66.3058 283.784 58.9619 276.598 49.934 276.598C40.9061 276.598 33.5546 283.784 33.5546 292.611C33.5546 297.864 34.6777 302.715 36.8207 306.654C39.0701 310.849 40.6203 312.636 43.3211 315.482C43.6414 315.836 43.8188 316.296 43.8188 316.773C43.8188 317.251 43.6414 317.711 43.3211 318.065C42.9763 318.413 42.5099 318.614 42.0201 318.625ZM67.2116 311.877C63.0305 311.877 59.3419 310.782 56.3204 308.63C53.7462 306.826 51.6432 304.429 50.1885 301.643C48.7338 298.856 47.9699 295.761 47.9612 292.617C47.9514 292.38 47.9895 292.144 48.0734 291.922C48.1572 291.7 48.285 291.498 48.4492 291.327C48.6133 291.155 48.8103 291.019 49.0284 290.926C49.2465 290.833 49.4811 290.785 49.7182 290.785C49.9552 290.785 50.1899 290.833 50.4079 290.926C50.626 291.019 50.823 291.155 50.9872 291.327C51.1513 291.498 51.2791 291.7 51.363 291.922C51.4468 292.144 51.485 292.38 51.4751 292.617C51.481 295.17 52.1037 297.685 53.2903 299.945C54.4769 302.206 56.1921 304.147 58.2901 305.603C60.7842 307.353 63.7008 308.186 67.2147 308.186C68.4385 308.165 69.6584 308.043 70.8623 307.822C71.8107 307.639 72.7241 308.296 72.8989 309.317C72.988 309.788 72.8865 310.276 72.6166 310.672C72.3468 311.069 71.9307 311.342 71.4596 311.433C70.0601 311.709 68.6381 311.856 67.2116 311.87V311.877ZM60.1489 319.385C59.9946 319.378 59.8415 319.354 59.6929 319.312C54.106 317.707 50.4522 315.555 46.6222 311.652C41.7025 306.581 38.9987 299.833 38.9987 292.611C38.9987 286.702 43.847 281.887 49.8185 281.887C55.79 281.887 60.6398 286.702 60.6398 292.611C60.6398 296.514 63.9075 299.687 67.9472 299.687C71.987 299.687 75.2547 296.514 75.2547 292.611C75.2547 278.859 63.836 267.698 49.7835 267.698C39.8057 267.698 30.6714 273.461 26.5617 282.398C25.1939 285.352 24.4886 288.817 24.4886 292.611C24.4886 295.456 24.7333 299.943 26.8414 305.779C27.194 306.727 26.7365 307.785 25.8231 308.113C25.606 308.196 25.3744 308.234 25.1423 308.225C24.9102 308.216 24.6823 308.16 24.4724 308.061C24.2624 307.961 24.0747 307.82 23.9205 307.647C23.7664 307.473 23.6489 307.27 23.5752 307.049C21.8801 302.424 21.0117 297.537 21.0097 292.611C21.0097 288.234 21.8183 284.252 23.3989 280.793C28.0725 270.61 38.4363 264.013 49.7835 264.013C65.7693 264.013 78.7686 276.817 78.7686 292.574C78.7686 298.484 73.9203 303.298 67.9472 303.298C61.9742 303.298 57.1259 298.484 57.1259 292.574C57.1274 288.671 53.8598 285.492 49.82 285.492C45.7802 285.492 42.5126 288.665 42.5126 292.568C42.5126 298.8 44.8318 304.642 49.0829 309.019C52.4265 312.448 55.6182 314.339 60.5714 315.767C61.5198 316.023 62.0472 317.044 61.801 317.992C61.7242 318.377 61.519 318.725 61.2188 318.978C60.9186 319.231 60.5413 319.374 60.1489 319.385Z" fill="#4285F4"/>
</g>
<mask id="mask0_216_149" style="mask-type:luminance" maskUnits="userSpaceOnUse" x="463" y="89" width="75" height="75">
<path d="M538 89H463V164H538V89Z" fill="white"/>
</mask>
<g mask="url(#mask0_216_149)">
<path d="M538 89H463V164H538V89Z" fill="white" fill-opacity="0.01"/>
<g filter="url(#filter1_dd_216_149)">
<path d="M469.25 142.125V150.75C469.25 154.616 472.384 157.75 476.25 157.75H484.875" stroke="#4285F4" stroke-width="4" stroke-linecap="round" stroke-linejoin="round"/>
</g>
<g filter="url(#filter2_dd_216_149)">
<path d="M516.125 157.75H524.75C528.616 157.75 531.75 154.616 531.75 150.75V142.125" stroke="#4285F4" stroke-width="4" stroke-linecap="round" stroke-linejoin="round"/>
</g>
<g filter="url(#filter3_dd_216_149)">
<path d="M516.125 95.25H524.75C528.616 95.25 531.75 98.384 531.75 102.25V110.875" stroke="#4285F4" stroke-width="4" stroke-linecap="round" stroke-linejoin="round"/>
</g>
<g filter="url(#filter4_dd_216_149)">
<path d="M484.875 95.25H476.25C472.384 95.25 469.25 98.384 469.25 102.25V110.875" stroke="#4285F4" stroke-width="4" stroke-linecap="round" stroke-linejoin="round"/>
</g>
<g filter="url(#filter5_dd_216_149)">
<path d="M488 142.125C488 142.125 492.687 146.813 500.5 146.813C508.312 146.813 513 142.125 513 142.125" stroke="#4285F4" stroke-width="4" stroke-linecap="round" stroke-linejoin="round"/>
</g>
<g filter="url(#filter6_dd_216_149)">
<path d="M500.5 110.875V124.938C500.5 128.063 497.375 131.188 494.25 131.188H492.688" stroke="#4285F4" stroke-width="4" stroke-linecap="round" stroke-linejoin="round"/>
</g>
<g filter="url(#filter7_dd_216_149)">
<path d="M516.125 110.875V114" stroke="#4285F4" stroke-width="4" stroke-linecap="round" stroke-linejoin="round"/>
</g>
<g filter="url(#filter8_dd_216_149)">
<path d="M484.875 110.875V114" stroke="#4285F4" stroke-width="4" stroke-linecap="round" stroke-linejoin="round"/>
</g>
</g>
<g filter="url(#filter9_dd_216_149)">
<mask id="mask1_216_149" style="mask-type:luminance" maskUnits="userSpaceOnUse" x="67" y="80" width="40" height="79">
<path d="M97.8575 80.762L67.688 84.2221L76.2302 158.703L106.4 155.243L97.8575 80.762Z" fill="white"/>
</mask>
<g mask="url(#mask1_216_149)">
<path d="M98.0063 140.613C94.4871 141.016 90.9241 140.467 87.6893 139.024C84.4544 137.58 81.6661 135.295 79.6153 132.407C77.5644 129.519 76.3261 126.133 76.0296 122.604C75.7331 119.074 76.3892 115.529 77.9295 112.339C79.4698 109.149 81.8379 106.431 84.7866 104.469C87.7354 102.506 91.1568 101.37 94.694 101.18C98.2311 100.991 101.754 101.753 104.896 103.389C107.476 104.732 109.72 106.623 111.478 108.921C112.182 109.841 113.29 110.397 114.442 110.265L152.547 105.894C153.338 105.804 154.132 106.031 154.755 106.525L160.827 111.348C162.125 112.379 162.341 114.266 161.311 115.563L157.581 120.26C156.55 121.557 154.663 121.774 153.366 120.743L151.801 119.5C150.504 118.47 148.616 118.686 147.586 119.984L146.343 121.549C145.313 122.846 143.426 123.063 142.128 122.032L140.563 120.789C139.266 119.759 137.379 119.975 136.348 121.273L135.106 122.837C134.075 124.135 132.188 124.351 130.891 123.321L129.326 122.078C128.028 121.048 126.141 121.264 125.111 122.562L122.775 125.502C122.28 126.126 121.558 126.526 120.768 126.617L116.375 127.121C115.224 127.253 114.27 128.045 113.792 129.101C112.517 131.921 110.595 134.411 108.171 136.363C105.254 138.713 101.729 140.187 98.0063 140.613ZM90.7765 127.21C92.2667 127.04 93.6279 126.284 94.5608 125.109C95.4937 123.934 95.9218 122.437 95.7509 120.947C95.58 119.457 94.8241 118.096 93.6495 117.163C92.4749 116.23 90.9778 115.802 89.4876 115.973C87.9974 116.144 86.6362 116.9 85.7033 118.074C84.7704 119.249 84.3423 120.746 84.5132 122.236C84.6841 123.726 85.44 125.088 86.6146 126.02C87.7892 126.953 89.2863 127.381 90.7765 127.21Z" fill="#4285F4"/>
</g>
<mask id="mask2_216_149" style="mask-type:luminance" maskUnits="userSpaceOnUse" x="97" y="47" width="62" height="83">
<path d="M129.33 47.8768L97.0576 61.71L126.22 129.744L158.492 115.911L129.33 47.8768Z" fill="white"/>
</mask>
<g mask="url(#mask2_216_149)">
<path d="M108.918 120.371C105.662 121.766 102.092 122.262 98.5788 121.806C95.0659 121.351 91.7396 119.961 88.9469 117.782C86.1541 115.603 83.9973 112.715 82.7013 109.418C81.4053 106.121 81.0177 102.537 81.5789 99.0397C82.14 95.5422 83.6295 92.2593 85.8918 89.5336C88.1541 86.8078 91.1063 84.7391 94.4406 83.5432C97.7749 82.3473 101.369 82.068 104.848 82.7345C107.704 83.2816 110.397 84.4497 112.739 86.147C113.677 86.827 114.898 87.0413 115.964 86.5848L151.217 71.4738C151.948 71.1603 152.774 71.1502 153.513 71.4457L160.713 74.3253C162.252 74.9406 163 76.6864 162.385 78.2248L160.158 83.7934C159.542 85.3318 157.796 86.0801 156.258 85.4649L154.403 84.7229C152.864 84.1076 151.118 84.8559 150.503 86.3943L149.761 88.2497C149.146 89.7881 147.4 90.5365 145.862 89.9212L144.006 89.1792C142.468 88.5639 140.722 89.3123 140.107 90.8507L139.365 92.7061C138.749 94.2445 137.004 94.9928 135.465 94.3776L133.61 93.6355C132.071 93.0203 130.325 93.7686 129.71 95.307L128.316 98.7941C128.02 99.5329 127.443 100.124 126.712 100.437L122.648 102.179C121.583 102.636 120.896 103.668 120.741 104.817C120.329 107.884 119.201 110.82 117.438 113.385C115.317 116.473 112.362 118.896 108.918 120.371ZM98.1498 109.604C99.5285 109.013 100.616 107.898 101.173 106.506C101.73 105.113 101.711 103.556 101.12 102.177C100.529 100.799 99.4145 99.7112 98.0218 99.1542C96.6291 98.5972 95.0721 98.6163 93.6935 99.2072C92.3148 99.7982 91.2274 100.913 90.6704 102.305C90.1134 103.698 90.1325 105.255 90.7234 106.634C91.3143 108.012 92.4288 109.1 93.8215 109.657C95.2142 110.214 96.7711 110.195 98.1498 109.604Z" fill="#4285F4"/>
</g>
<path d="M119.725 123.571L120.883 133.487" stroke="#969696" stroke-width="3" stroke-linecap="round"/>
<path d="M122.835 121.369L131.593 132.278" stroke="#969696" stroke-width="3" stroke-linecap="round"/>
<path d="M124.638 117.033L133.664 121.297" stroke="#969696" stroke-width="3" stroke-linecap="round"/>
<path d="M155.073 91.2608L149.495 99.54" stroke="#969696" stroke-width="3" stroke-linecap="round"/>
<path d="M158.867 91.6145L158.41 105.596" stroke="#969696" stroke-width="3" stroke-linecap="round"/>
<path d="M163.058 89.4974L167.132 98.6114" stroke="#969696" stroke-width="3" stroke-linecap="round"/>
<mask id="mask3_216_149" style="mask-type:luminance" maskUnits="userSpaceOnUse" x="160" y="38" width="45" height="79">
<path d="M204.29 41.4494L167.438 38.0321L160.516 112.681L197.368 116.099L204.29 41.4494Z" fill="white"/>
</mask>
<g mask="url(#mask3_216_149)">
<path d="M123.982 92.8434C120.455 92.5156 117.08 91.2473 114.21 89.171C111.34 87.0946 109.08 84.2861 107.666 81.0386C106.251 77.791 105.734 74.2234 106.168 70.7079C106.602 67.1923 107.971 63.8576 110.133 61.0517C112.295 58.2458 115.171 56.0714 118.46 54.7555C121.748 53.4395 125.33 53.0302 128.831 53.5701C132.332 54.1101 135.624 55.5796 138.363 57.8253C140.612 59.6689 142.421 61.9802 143.669 64.5895C144.169 65.6348 145.14 66.4059 146.294 66.5129L184.486 70.0544C185.278 70.1278 186.009 70.513 186.517 71.1252L191.471 77.0915C192.529 78.3663 192.354 80.2576 191.079 81.316L186.465 85.1472C185.19 86.2056 183.299 86.0302 182.24 84.7554L180.964 83.218C179.905 81.9433 178.014 81.7679 176.739 82.8263L175.202 84.1028C173.927 85.1612 172.036 84.9858 170.977 83.711L169.701 82.1736C168.642 80.8988 166.751 80.7235 165.476 81.7819L163.939 83.0584C162.664 84.1167 160.773 83.9414 159.714 82.6666L158.438 81.1292C157.379 79.8544 155.488 79.679 154.213 80.7374L151.324 83.1365C150.712 83.6448 149.923 83.8891 149.13 83.8156L144.728 83.4073C143.574 83.3003 142.478 83.8798 141.794 84.8152C139.968 87.3135 137.575 89.3563 134.802 90.7696C131.464 92.471 127.712 93.1901 123.982 92.8434ZM119.656 78.2425C121.149 78.381 122.637 77.9205 123.791 76.9623C124.945 76.0041 125.671 74.6267 125.809 73.1332C125.948 71.6396 125.487 70.1522 124.529 68.9982C123.571 67.8441 122.194 67.118 120.7 66.9795C119.206 66.841 117.719 67.3015 116.565 68.2597C115.411 69.2178 114.685 70.5952 114.546 72.0888C114.408 73.5823 114.868 75.0697 115.827 76.2238C116.785 77.3778 118.162 78.104 119.656 78.2425Z" fill="#4285F4"/>
</g>
<path d="M83.8511 83.1523L79.2783 71.6375" stroke="#969696" stroke-width="3" stroke-linecap="round"/>
<path d="M80.9935 86.4126L67.1711 76.2798" stroke="#969696" stroke-width="3" stroke-linecap="round"/>
<path d="M80.1948 91.766L68.0044 89.5535" stroke="#969696" stroke-width="3" stroke-linecap="round"/>
<path d="M153.667 63.1054L155.157 51.953" stroke="#969696" stroke-width="3" stroke-linecap="round"/>
<path d="M149.831 64.5151L143.344 50.2736" stroke="#969696" stroke-width="3" stroke-linecap="round"/>
<path d="M146.753 68.548L138.078 61.3831" stroke="#969696" stroke-width="3" stroke-linecap="round"/>
</g>
<path d="M383.87 68.5233C383.87 70.4695 382.292 72.0469 380.347 72.0469C378.401 72.0469 376.823 70.4695 376.823 68.5233C376.823 66.5771 378.401 64.9997 380.347 64.9997C382.292 64.9997 383.87 66.5771 383.87 68.5233Z" fill="#A3A3A3"/>
<path d="M342.175 199.754V155.681L380.934 116.922V65.587H379.759V116.436L341 155.195V199.754H342.175Z" fill="#A3A3A3"/>
<path d="M364.155 19.5239C364.155 21.47 362.577 23.0474 360.632 23.0474C358.686 23.0474 357.108 21.47 357.108 19.5239C357.108 17.5777 358.686 16.0003 360.632 16.0003C362.577 16.0003 364.155 17.5777 364.155 19.5239Z" fill="#A3A3A3"/>
<path d="M316 108.544V202.749H317.175V109.031L373.552 52.6536V31.6132L361.047 19.1087L360.217 19.9391L372.377 32.0995V52.1673L316 108.544Z" fill="#A3A3A3"/>
<path d="M348.457 51.5233C348.457 53.4695 346.879 55.0469 344.933 55.0469C342.987 55.0469 341.41 53.4695 341.41 51.5233C341.41 49.5771 342.987 47.9997 344.933 47.9997C346.879 47.9997 348.457 49.5771 348.457 51.5233Z" fill="#A3A3A3"/>
<path d="M306.175 190.704V91.1129L344.762 52.5258L343.931 51.6954L305 90.6267V190.704H306.175Z" fill="#A3A3A3"/>
<path d="M430.662 64.5233C430.662 66.4695 429.084 68.0469 427.139 68.0469C425.192 68.0469 423.615 66.4695 423.615 64.5233C423.615 62.5771 425.192 60.9997 427.139 60.9997C429.084 60.9997 430.662 62.5771 430.662 64.5233Z" fill="#A3A3A3"/>
<path d="M370.175 202.5V195.138L408.934 156.379V105.287L427.139 87.0823V63.936H425.964V86.5961L407.759 104.801V155.893L369 194.652V202.5H370.175Z" fill="#A3A3A3"/>
<path d="M284.634 53.5233C284.634 55.4695 283.056 57.0469 281.111 57.0469C279.164 57.0469 277.587 55.4695 277.587 53.5233C277.587 51.5771 279.164 49.9998 281.111 49.9998C283.056 49.9998 284.634 51.5771 284.634 53.5233Z" fill="#A3A3A3"/>
<path d="M277 166.034V191.397H278.175V166.52L295.792 148.903V70.9285L280.975 53.1474L280.072 53.8991L294.618 71.3537V148.416L277 166.034Z" fill="#A3A3A3"/>
<path d="M210.517 37.2784C210.517 39.2246 208.939 40.802 206.993 40.802C205.047 40.802 203.469 39.2246 203.469 37.2784C203.469 35.3323 205.047 33.7549 206.993 33.7549C208.939 33.7549 210.517 35.3323 210.517 37.2784Z" fill="#A3A3A3"/>
<path d="M222.949 132.171L258.185 167.407V190.55H259.36V166.92L224.124 131.685V53.5789L208.096 37.5508L207.265 38.3812L222.949 54.0652V132.171Z" fill="#A3A3A3"/>
<path d="M187.047 114.524C187.047 116.47 185.469 118.047 183.524 118.047C181.577 118.047 180 116.47 180 114.524C180 112.577 181.577 111 183.524 111C185.469 111 187.047 112.577 187.047 114.524Z" fill="#A3A3A3"/>
<path d="M220.551 504.722C220.551 502.776 222.129 501.198 224.074 501.198C226.021 501.198 227.598 502.776 227.598 504.722C227.598 506.668 226.021 508.245 224.074 508.245C222.129 508.245 220.551 506.668 220.551 504.722Z" fill="#A3A3A3"/>
<path d="M262.247 373.491V417.564L223.488 456.323V507.658H224.662V456.81L263.421 418.05V373.491H262.247Z" fill="#A3A3A3"/>
<path d="M187 515.524C187 513.577 188.578 512 190.524 512C192.47 512 194.047 513.577 194.047 515.524C194.047 517.47 192.47 519.047 190.524 519.047C188.578 519.047 187 517.47 187 515.524Z" fill="#A3A3A3"/>
<path d="M241.696 369V413.074L190.604 464.165V515.5H191.779V464.652L242.87 413.56V369H241.696Z" fill="#A3A3A3"/>
<path d="M263.255 513.621C263.255 511.674 264.833 510.097 266.778 510.097C268.725 510.097 270.302 511.674 270.302 513.621C270.302 515.567 268.725 517.144 266.778 517.144C264.833 517.144 263.255 515.567 263.255 513.621Z" fill="#A3A3A3"/>
<path d="M305.537 374.44V474.031L266.95 512.618L267.781 513.448L306.712 474.517V374.44H305.537Z" fill="#A3A3A3"/>
<path d="M391.543 504.254C391.543 502.348 389.998 500.804 388.093 500.804C386.188 500.804 384.644 502.348 384.644 504.254C384.644 506.159 386.188 507.703 388.093 507.703C389.998 507.703 391.543 506.159 391.543 504.254Z" fill="#A3A3A3"/>
<path d="M350.15 368V465.497L387.925 503.272L387.112 504.085L349 465.973V368H350.15Z" fill="#A3A3A3"/>
<path d="M228.143 546.003C228.143 544.057 229.721 542.479 231.666 542.479C233.613 542.479 235.19 544.057 235.19 546.003C235.19 547.949 233.613 549.526 231.666 549.526C229.721 549.526 228.143 547.949 228.143 546.003Z" fill="#A3A3A3"/>
<path d="M288.631 374.44V415.388L249.871 454.147V505.239L231.666 523.444V546.59H232.841V523.93L251.046 505.725V454.633L289.805 415.874V374.44H288.631Z" fill="#A3A3A3"/>
<path d="M166 454.524C166 452.577 167.578 451 169.524 451C171.47 451 173.047 452.577 173.047 454.524C173.047 456.47 171.47 458.047 169.524 458.047C167.578 458.047 166 456.47 166 454.524Z" fill="#A3A3A3"/>
<path d="M428.377 546.4C428.377 544.411 426.765 542.798 424.776 542.798C422.787 542.798 421.175 544.411 421.175 546.4C421.175 548.389 422.787 550.001 424.776 550.001C426.765 550.001 428.377 548.389 428.377 546.4Z" fill="#A3A3A3"/>
<path d="M462.202 502.601C462.202 500.612 460.59 499 458.601 499C456.612 499 455 500.612 455 502.601C455 504.59 456.612 506.202 458.601 506.202C460.59 506.202 462.202 504.59 462.202 502.601Z" fill="#A3A3A3"/>
<path d="M359.353 371.593V397.299L425.977 463.922V548.2H424.776V464.419L358.153 397.796V371.593H359.353Z" fill="#A3A3A3"/>
<path d="M334.199 514.212C334.199 512.266 335.777 510.688 337.722 510.688C339.669 510.688 341.246 512.266 341.246 514.212C341.246 516.158 339.669 517.735 337.722 517.735C335.777 517.735 334.199 516.158 334.199 514.212Z" fill="#A3A3A3"/>
<path d="M341.833 401.701V376.338H340.658V401.214L323.041 418.832V496.806L337.858 514.587L338.761 513.836L324.215 496.381V419.318L341.833 401.701Z" fill="#A3A3A3"/>
<path d="M557.512 316.309C555.565 316.309 553.988 314.731 553.988 312.785C553.988 310.839 555.565 309.262 557.512 309.262C559.458 309.262 561.035 310.839 561.035 312.785C561.035 314.731 559.458 316.309 557.512 316.309Z" fill="#A3A3A3"/>
<path d="M468.491 268.154H374.286V269.328H468.005L524.382 325.705H545.422L557.927 313.201L557.096 312.37L544.936 324.531H524.868L468.491 268.154Z" fill="#A3A3A3"/>
<path d="M507.64 205C505.659 205 504.054 206.606 504.054 208.586C504.054 210.566 505.659 212.172 507.64 212.172C509.621 212.172 511.226 210.566 511.226 208.586C511.226 206.606 509.621 205 507.64 205Z" fill="#A3A3A3"/>
<path d="M463.586 190C461.605 190 460 191.606 460 193.586C460 195.566 461.605 197.172 463.586 197.172C465.566 197.172 467.172 195.566 467.172 193.586C467.172 191.606 465.566 190 463.586 190Z" fill="#A3A3A3"/>
<path d="M366 248.03H467.351L506.62 208.761L507.465 209.606L467.846 249.225H366V248.03Z" fill="#A3A3A3"/>
<path d="M475.563 327.662C473.617 327.662 472.04 326.084 472.04 324.139C472.04 322.193 473.617 320.615 475.563 320.615C477.51 320.615 479.087 322.193 479.087 324.139C479.087 326.084 477.51 327.662 475.563 327.662Z" fill="#A3A3A3"/>
<path d="M383.707 305.934H434.799L453.005 324.139H476.151V322.964H453.491L435.286 304.759H384.194H425.142H383.707V305.934Z" fill="#A3A3A3"/>
<path d="M495.131 356.263C493.402 356.263 492 354.86 492 353.131C492 351.402 493.402 350 495.131 350C496.861 350 498.262 351.402 498.262 353.131C498.262 354.86 496.861 356.263 495.131 356.263Z" fill="#A3A3A3"/>
<path d="M474.131 395.263C472.402 395.263 471 393.86 471 392.131C471 390.402 472.402 389 474.131 389C475.861 389 477.262 390.402 477.262 392.131C477.262 393.86 475.861 395.263 474.131 395.263Z" fill="#A3A3A3"/>
<path d="M384 336.044H393.014L409.193 352.222L494.5 353.266V352.222L409.625 351.178L393.447 335H384.432H384V336.044Z" fill="#A3A3A3"/>
<path d="M100.208 193C102.154 193 103.731 194.578 103.731 196.524C103.731 198.47 102.154 200.047 100.208 200.047C98.2615 200.047 96.6841 198.47 96.6841 196.524C96.6841 194.578 98.2615 193 100.208 193Z" fill="#A3A3A3"/>
<path d="M231.439 234.696H187.365L148.606 195.937H97.2714V197.111H148.12L186.879 235.87H231.439V234.696Z" fill="#A3A3A3"/>
<path d="M90.2161 345.129C91.9925 345.129 93.4323 343.689 93.4323 341.913C93.4323 340.137 91.9925 338.697 90.2161 338.697C88.4398 338.697 87 340.137 87 341.913C87 343.689 88.4398 345.129 90.2161 345.129Z" fill="#A3A3A3"/>
<path d="M209.997 307.072H169.769L134.392 342.449H87.5361V341.377H133.948L169.325 306H209.997V307.072Z" fill="#A3A3A3"/>
<path d="M96.2161 405.13C97.9925 405.13 99.4323 403.689 99.4323 401.914C99.4323 400.137 97.9925 398.698 96.2161 398.698C94.4398 398.698 93 400.137 93 401.914C93 403.689 94.4398 405.13 96.2161 405.13Z" fill="#A3A3A3"/>
<path d="M199.5 367.072H175.769L140.392 402.449H93.5361V401.377H139.948L175.325 366H199.5V367.072Z" fill="#A3A3A3"/>
<path d="M38.5237 196.035C40.4699 196.035 42.0472 197.613 42.0472 199.558C42.0472 201.504 40.4699 203.082 38.5237 203.082C36.5775 203.082 35.0001 201.504 35.0001 199.558C35.0001 197.613 36.5775 196.035 38.5237 196.035Z" fill="#A3A3A3"/>
<path d="M210.087 256.522H169.139L130.379 217.763H79.2877L61.0826 199.558H37.9363V200.733H60.5964L78.8015 218.938H129.893L168.652 257.697H210.087V256.522Z" fill="#A3A3A3"/>
<path d="M38.6013 392.224C40.5904 392.224 42.2025 390.612 42.2025 388.623C42.2025 386.634 40.5904 385.022 38.6013 385.022C36.6122 385.022 35 386.634 35 388.623C35 390.612 36.6122 392.224 38.6013 392.224Z" fill="#A3A3A3"/>
<path d="M206.203 341.2H180.497L121.078 389.823H36.8007V388.623H120.581L180 340H206.203V341.2Z" fill="#A3A3A3"/>
<path d="M103.524 272C105.47 272 107.047 273.578 107.047 275.524C107.047 277.47 105.47 279.047 103.524 279.047C101.577 279.047 100 277.47 100 275.524C100 273.578 101.577 272 103.524 272Z" fill="#A3A3A3"/>
<path d="M190.114 293H213V291.813H190.552L174.655 274H104.295L104 274.274L104.678 275.188H174.216L190.114 293Z" fill="#A3A3A3"/>
<mask id="mask4_216_149" style="mask-type:luminance" maskUnits="userSpaceOnUse" x="222" y="207" width="146" height="146">
<path d="M367.194 207H222V352.194H367.194V207Z" fill="white"/>
</mask>
<g mask="url(#mask4_216_149)">
<g filter="url(#filter10_dd_216_149)">
<path d="M342.678 214.846C342.427 213.534 341.282 212.584 339.942 212.584H249.28C247.94 212.584 246.795 213.534 246.543 214.846L228.115 307.463H361.107L342.678 214.846Z" fill="#4285F4"/>
<mask id="mask5_216_149" style="mask-type:luminance" maskUnits="userSpaceOnUse" x="252" y="223" width="97" height="76">
<path d="M348.326 223.133H252.367V298.102H348.326V223.133Z" fill="white"/>
</mask>
<g mask="url(#mask5_216_149)">
<g filter="url(#filter11_dd_216_149)">
<path d="M276.063 282.611C272.521 282.61 269.043 281.659 265.994 279.856C262.945 278.054 260.435 275.466 258.727 272.363C257.018 269.26 256.174 265.755 256.281 262.215C256.389 258.674 257.445 255.227 259.338 252.234C261.232 249.24 263.894 246.81 267.048 245.196C270.201 243.582 273.729 242.843 277.265 243.058C280.801 243.272 284.214 244.431 287.149 246.415C289.559 248.043 291.574 250.177 293.058 252.66C293.652 253.655 294.69 254.333 295.849 254.333H334.205C335 254.333 335.763 254.649 336.326 255.211L341.809 260.695C342.981 261.866 342.981 263.766 341.809 264.937L337.568 269.178C336.397 270.35 334.497 270.35 333.326 269.178L331.913 267.765C330.741 266.594 328.842 266.594 327.67 267.765L326.257 269.178C325.086 270.35 323.186 270.35 322.015 269.178L320.602 267.765C319.43 266.594 317.53 266.594 316.359 267.765L314.946 269.178C313.774 270.35 311.875 270.35 310.703 269.178L309.29 267.765C308.119 266.594 306.219 266.594 305.048 267.765L302.392 270.421C301.829 270.984 301.066 271.3 300.271 271.3H295.849C294.69 271.3 293.652 271.978 293.058 272.972C291.47 275.629 289.276 277.884 286.646 279.547C283.479 281.549 279.809 282.612 276.063 282.611ZM270.407 268.472C271.907 268.472 273.346 267.876 274.406 266.815C275.467 265.755 276.063 264.316 276.063 262.816C276.063 261.316 275.467 259.878 274.406 258.817C273.346 257.756 271.907 257.16 270.407 257.16C268.907 257.16 267.469 257.756 266.408 258.817C265.347 259.878 264.752 261.316 264.752 262.816C264.752 264.316 265.347 265.755 266.408 266.815C267.469 267.876 268.907 268.472 270.407 268.472Z" fill="white" fill-opacity="0.77"/>
</g>
</g>
<path fill-rule="evenodd" clip-rule="evenodd" d="M371.309 315H218.309V351H371.309V315ZM228.809 339C231.847 339 234.309 336.538 234.309 333.5C234.309 330.462 231.847 328 228.809 328C225.772 328 223.309 330.462 223.309 333.5C223.309 336.538 225.772 339 228.809 339ZM365.309 333.5C365.309 336.538 362.847 339 359.809 339C356.772 339 354.309 336.538 354.309 333.5C354.309 330.462 356.772 328 359.809 328C362.847 328 365.309 330.462 365.309 333.5ZM262.309 328H240.309V339H262.309V328ZM281.309 327H288.309V331H281.309V327ZM288.309 335H281.309V339H288.309V335ZM295.309 327H302.309V331H295.309V327ZM302.309 335H295.309V339H302.309V335ZM309.309 327H316.309V331H309.309V327ZM316.309 335H309.309V339H316.309V335ZM323.309 327H330.309V331H323.309V327ZM330.309 335H323.309V339H330.309V335ZM337.309 327H344.309V331H337.309V327ZM344.309 335H337.309V339H344.309V335Z" fill="#4285F4"/>
</g>
</g>
<g filter="url(#filter12_dd_216_149)">
<path d="M98.3192 439C98.3192 437.343 99.6624 436 101.319 436H109.063C110.72 436 112.004 437.407 112.718 438.903C113.803 441.176 116.123 442.746 118.809 442.746C121.495 442.746 123.815 441.175 124.901 438.903C125.615 437.407 126.899 436 128.556 436H136.3C137.957 436 139.3 437.343 139.3 439V501C139.3 502.657 137.957 504 136.3 504H101.319C99.6624 504 98.3192 502.657 98.3192 501V439Z" stroke="#4285F4" stroke-width="4" stroke-miterlimit="10"/>
<path d="M83 446.381H98.3193M83 462.127H98.3193M83 477.872H98.3193M83 493.618H98.3193M139.3 446.381H154.619M139.3 462.127H154.619M139.3 477.872H154.619M139.3 493.618H154.619M111.216 494.238H105.602" stroke="#4285F4" stroke-width="4" stroke-miterlimit="10" stroke-linejoin="round"/>
</g>
<path fill-rule="evenodd" clip-rule="evenodd" d="M540 385H490V460H540V385ZM531.667 395.185H497.407V410.926H531.667V395.185ZM497.407 416.481H503.889V422.963H497.407V416.481ZM503.889 425.741H497.407V432.222H503.889V425.741ZM497.407 435H503.889V441.481H497.407V435ZM503.889 444.259H497.407V450.741H503.889V444.259ZM506.667 416.481H513.148V422.963H506.667V416.481ZM513.148 425.741H506.667V432.222H513.148V425.741ZM506.667 435H513.148V441.481H506.667V435ZM513.148 444.259H506.667V450.741H513.148V444.259ZM515.926 416.481H522.407V422.963H515.926V416.481ZM522.407 425.741H515.926V432.222H522.407V425.741ZM515.926 435H522.407V441.481H515.926V435ZM522.407 444.259H515.926V450.741H522.407V444.259ZM525.185 416.481H531.667V422.963H525.185V416.481ZM531.667 425.741H525.185V432.222H531.667V425.741ZM525.185 435H531.667V441.481H525.185V435ZM531.667 444.259H525.185V450.741H531.667V444.259Z" fill="#4285F4"/>
<path d="M379.5 367H394L419.5 392.5H473.5" stroke="#A3A3A3"/>
<path d="M382 214H443.5L462.5 195" stroke="#A3A3A3"/>
<path d="M459 413.25C460.795 413.25 462.25 411.795 462.25 410C462.25 408.205 460.795 406.75 459 406.75C457.205 406.75 455.75 408.205 455.75 410C455.75 411.795 457.205 413.25 459 413.25Z" stroke="#A3A3A3" stroke-width="1.5"/>
<path d="M423 372.25C424.795 372.25 426.25 370.795 426.25 369C426.25 367.205 424.795 365.75 423 365.75C421.205 365.75 419.75 367.205 419.75 369C419.75 370.795 421.205 372.25 423 372.25Z" stroke="#A3A3A3" stroke-width="1.5"/>
<path d="M442 187.25C443.795 187.25 445.25 185.795 445.25 184C445.25 182.205 443.795 180.75 442 180.75C440.205 180.75 438.75 182.205 438.75 184C438.75 185.795 440.205 187.25 442 187.25Z" stroke="#A3A3A3" stroke-width="1.5"/>
<path d="M394 85.25C395.795 85.25 397.25 83.7949 397.25 82C397.25 80.2051 395.795 78.75 394 78.75C392.205 78.75 390.75 80.2051 390.75 82C390.75 83.7949 392.205 85.25 394 85.25Z" stroke="#A3A3A3" stroke-width="1.5"/>
<path d="M346 124.25C347.795 124.25 349.25 122.795 349.25 121C349.25 119.205 347.795 117.75 346 117.75C344.205 117.75 342.75 119.205 342.75 121C342.75 122.795 344.205 124.25 346 124.25Z" stroke="#A3A3A3" stroke-width="1.5"/>
<path d="M306 64.25C307.795 64.25 309.25 62.7949 309.25 61C309.25 59.2051 307.795 57.75 306 57.75C304.205 57.75 302.75 59.2051 302.75 61C302.75 62.7949 304.205 64.25 306 64.25Z" stroke="#A3A3A3" stroke-width="1.5"/>
<path d="M151 151.25C152.795 151.25 154.25 149.795 154.25 148C154.25 146.205 152.795 144.75 151 144.75C149.205 144.75 147.75 146.205 147.75 148C147.75 149.795 149.205 151.25 151 151.25Z" stroke="#A3A3A3" stroke-width="1.5"/>
<path d="M213 164.25C214.795 164.25 216.25 162.795 216.25 161C216.25 159.205 214.795 157.75 213 157.75C211.205 157.75 209.75 159.205 209.75 161C209.75 162.795 211.205 164.25 213 164.25Z" stroke="#A3A3A3" stroke-width="1.5"/>
<path d="M205 217.25C206.795 217.25 208.25 215.795 208.25 214C208.25 212.205 206.795 210.75 205 210.75C203.205 210.75 201.75 212.205 201.75 214C201.75 215.795 203.205 217.25 205 217.25Z" stroke="#A3A3A3" stroke-width="1.5"/>
<path d="M125 212.25C126.795 212.25 128.25 210.795 128.25 209C128.25 207.205 126.795 205.75 125 205.75C123.205 205.75 121.75 207.205 121.75 209C121.75 210.795 123.205 212.25 125 212.25Z" stroke="#A3A3A3" stroke-width="1.5"/>
<path d="M104 255.25C105.795 255.25 107.25 253.795 107.25 252C107.25 250.205 105.795 248.75 104 248.75C102.205 248.75 100.75 250.205 100.75 252C100.75 253.795 102.205 255.25 104 255.25Z" stroke="#A3A3A3" stroke-width="1.5"/>
<path d="M143 315.25C144.795 315.25 146.25 313.795 146.25 312C146.25 310.205 144.795 308.75 143 308.75C141.205 308.75 139.75 310.205 139.75 312C139.75 313.795 141.205 315.25 143 315.25Z" stroke="#A3A3A3" stroke-width="1.5"/>
<path d="M190 357.25C191.795 357.25 193.25 355.795 193.25 354C193.25 352.205 191.795 350.75 190 350.75C188.205 350.75 186.75 352.205 186.75 354C186.75 355.795 188.205 357.25 190 357.25Z" stroke="#A3A3A3" stroke-width="1.5"/>
<path d="M213 471.25C214.795 471.25 216.25 469.795 216.25 468C216.25 466.205 214.795 464.75 213 464.75C211.205 464.75 209.75 466.205 209.75 468C209.75 469.795 211.205 471.25 213 471.25Z" stroke="#A3A3A3" stroke-width="1.5"/>
<path d="M292 438.25C293.795 438.25 295.25 436.795 295.25 435C295.25 433.205 293.795 431.75 292 431.75C290.205 431.75 288.75 433.205 288.75 435C288.75 436.795 290.205 438.25 292 438.25Z" stroke="#A3A3A3" stroke-width="1.5"/>
<path d="M350 496.25C351.795 496.25 353.25 494.795 353.25 493C353.25 491.205 351.795 489.75 350 489.75C348.205 489.75 346.75 491.205 346.75 493C346.75 494.795 348.205 496.25 350 496.25Z" stroke="#A3A3A3" stroke-width="1.5"/>
<path d="M215.5 368.5V409L170.5 454" stroke="#969696"/>
<path d="M367.5 372V389.5L440.5 462.5V484.5L458.5 502.5" stroke="#A3A3A3"/>
<path d="M220.5 213V189.5L183 152V134.5V116" stroke="#969696" stroke-width="1.5"/>
</g>
<defs>
<filter id="filter0_dd_216_149" x="6.29272" y="242.432" width="87.2292" height="96.9532" filterUnits="userSpaceOnUse" color-interpolation-filters="sRGB">
<feFlood flood-opacity="0" result="BackgroundImageFix"/>
<feColorMatrix in="SourceAlpha" type="matrix" values="0 0 0 0 0 0 0 0 0 0 0 0 0 0 0 0 0 0 127 0" result="hardAlpha"/>
<feOffset dy="4"/>
<feGaussianBlur stdDeviation="2"/>
<feColorMatrix type="matrix" values="0 0 0 0 0 0 0 0 0 0 0 0 0 0 0 0 0 0 0.3 0"/>
<feBlend mode="normal" in2="BackgroundImageFix" result="effect1_dropShadow_216_149"/>
<feColorMatrix in="SourceAlpha" type="matrix" values="0 0 0 0 0 0 0 0 0 0 0 0 0 0 0 0 0 0 127 0" result="hardAlpha"/>
<feOffset dy="8"/>
<feGaussianBlur stdDeviation="6"/>
<feColorMatrix type="matrix" values="0 0 0 0 0 0 0 0 0 0 0 0 0 0 0 0 0 0 0.15 0"/>
<feBlend mode="normal" in2="effect1_dropShadow_216_149" result="effect2_dropShadow_216_149"/>
<feBlend mode="normal" in="SourceGraphic" in2="effect2_dropShadow_216_149" result="shape"/>
</filter>
<filter id="filter1_dd_216_149" x="455.25" y="136.125" width="43.625" height="43.625" filterUnits="userSpaceOnUse" color-interpolation-filters="sRGB">
<feFlood flood-opacity="0" result="BackgroundImageFix"/>
<feColorMatrix in="SourceAlpha" type="matrix" values="0 0 0 0 0 0 0 0 0 0 0 0 0 0 0 0 0 0 127 0" result="hardAlpha"/>
<feOffset dy="4"/>
<feGaussianBlur stdDeviation="2"/>
<feColorMatrix type="matrix" values="0 0 0 0 0 0 0 0 0 0 0 0 0 0 0 0 0 0 0.3 0"/>
<feBlend mode="normal" in2="BackgroundImageFix" result="effect1_dropShadow_216_149"/>
<feColorMatrix in="SourceAlpha" type="matrix" values="0 0 0 0 0 0 0 0 0 0 0 0 0 0 0 0 0 0 127 0" result="hardAlpha"/>
<feOffset dy="8"/>
<feGaussianBlur stdDeviation="6"/>
<feColorMatrix type="matrix" values="0 0 0 0 0 0 0 0 0 0 0 0 0 0 0 0 0 0 0.15 0"/>
<feBlend mode="normal" in2="effect1_dropShadow_216_149" result="effect2_dropShadow_216_149"/>
<feBlend mode="normal" in="SourceGraphic" in2="effect2_dropShadow_216_149" result="shape"/>
</filter>
<filter id="filter2_dd_216_149" x="502.125" y="136.125" width="43.625" height="43.625" filterUnits="userSpaceOnUse" color-interpolation-filters="sRGB">
<feFlood flood-opacity="0" result="BackgroundImageFix"/>
<feColorMatrix in="SourceAlpha" type="matrix" values="0 0 0 0 0 0 0 0 0 0 0 0 0 0 0 0 0 0 127 0" result="hardAlpha"/>
<feOffset dy="4"/>
<feGaussianBlur stdDeviation="2"/>
<feColorMatrix type="matrix" values="0 0 0 0 0 0 0 0 0 0 0 0 0 0 0 0 0 0 0.3 0"/>
<feBlend mode="normal" in2="BackgroundImageFix" result="effect1_dropShadow_216_149"/>
<feColorMatrix in="SourceAlpha" type="matrix" values="0 0 0 0 0 0 0 0 0 0 0 0 0 0 0 0 0 0 127 0" result="hardAlpha"/>
<feOffset dy="8"/>
<feGaussianBlur stdDeviation="6"/>
<feColorMatrix type="matrix" values="0 0 0 0 0 0 0 0 0 0 0 0 0 0 0 0 0 0 0.15 0"/>
<feBlend mode="normal" in2="effect1_dropShadow_216_149" result="effect2_dropShadow_216_149"/>
<feBlend mode="normal" in="SourceGraphic" in2="effect2_dropShadow_216_149" result="shape"/>
</filter>
<filter id="filter3_dd_216_149" x="502.125" y="89.25" width="43.625" height="43.625" filterUnits="userSpaceOnUse" color-interpolation-filters="sRGB">
<feFlood flood-opacity="0" result="BackgroundImageFix"/>
<feColorMatrix in="SourceAlpha" type="matrix" values="0 0 0 0 0 0 0 0 0 0 0 0 0 0 0 0 0 0 127 0" result="hardAlpha"/>
<feOffset dy="4"/>
<feGaussianBlur stdDeviation="2"/>
<feColorMatrix type="matrix" values="0 0 0 0 0 0 0 0 0 0 0 0 0 0 0 0 0 0 0.3 0"/>
<feBlend mode="normal" in2="BackgroundImageFix" result="effect1_dropShadow_216_149"/>
<feColorMatrix in="SourceAlpha" type="matrix" values="0 0 0 0 0 0 0 0 0 0 0 0 0 0 0 0 0 0 127 0" result="hardAlpha"/>
<feOffset dy="8"/>
<feGaussianBlur stdDeviation="6"/>
<feColorMatrix type="matrix" values="0 0 0 0 0 0 0 0 0 0 0 0 0 0 0 0 0 0 0.15 0"/>
<feBlend mode="normal" in2="effect1_dropShadow_216_149" result="effect2_dropShadow_216_149"/>
<feBlend mode="normal" in="SourceGraphic" in2="effect2_dropShadow_216_149" result="shape"/>
</filter>
<filter id="filter4_dd_216_149" x="455.25" y="89.25" width="43.625" height="43.625" filterUnits="userSpaceOnUse" color-interpolation-filters="sRGB">
<feFlood flood-opacity="0" result="BackgroundImageFix"/>
<feColorMatrix in="SourceAlpha" type="matrix" values="0 0 0 0 0 0 0 0 0 0 0 0 0 0 0 0 0 0 127 0" result="hardAlpha"/>
<feOffset dy="4"/>
<feGaussianBlur stdDeviation="2"/>
<feColorMatrix type="matrix" values="0 0 0 0 0 0 0 0 0 0 0 0 0 0 0 0 0 0 0.3 0"/>
<feBlend mode="normal" in2="BackgroundImageFix" result="effect1_dropShadow_216_149"/>
<feColorMatrix in="SourceAlpha" type="matrix" values="0 0 0 0 0 0 0 0 0 0 0 0 0 0 0 0 0 0 127 0" result="hardAlpha"/>
<feOffset dy="8"/>
<feGaussianBlur stdDeviation="6"/>
<feColorMatrix type="matrix" values="0 0 0 0 0 0 0 0 0 0 0 0 0 0 0 0 0 0 0.15 0"/>
<feBlend mode="normal" in2="effect1_dropShadow_216_149" result="effect2_dropShadow_216_149"/>
<feBlend mode="normal" in="SourceGraphic" in2="effect2_dropShadow_216_149" result="shape"/>
</filter>
<filter id="filter5_dd_216_149" x="474" y="136.125" width="53" height="32.688" filterUnits="userSpaceOnUse" color-interpolation-filters="sRGB">
<feFlood flood-opacity="0" result="BackgroundImageFix"/>
<feColorMatrix in="SourceAlpha" type="matrix" values="0 0 0 0 0 0 0 0 0 0 0 0 0 0 0 0 0 0 127 0" result="hardAlpha"/>
<feOffset dy="4"/>
<feGaussianBlur stdDeviation="2"/>
<feColorMatrix type="matrix" values="0 0 0 0 0 0 0 0 0 0 0 0 0 0 0 0 0 0 0.3 0"/>
<feBlend mode="normal" in2="BackgroundImageFix" result="effect1_dropShadow_216_149"/>
<feColorMatrix in="SourceAlpha" type="matrix" values="0 0 0 0 0 0 0 0 0 0 0 0 0 0 0 0 0 0 127 0" result="hardAlpha"/>
<feOffset dy="8"/>
<feGaussianBlur stdDeviation="6"/>
<feColorMatrix type="matrix" values="0 0 0 0 0 0 0 0 0 0 0 0 0 0 0 0 0 0 0.15 0"/>
<feBlend mode="normal" in2="effect1_dropShadow_216_149" result="effect2_dropShadow_216_149"/>
<feBlend mode="normal" in="SourceGraphic" in2="effect2_dropShadow_216_149" result="shape"/>
</filter>
<filter id="filter6_dd_216_149" x="478.688" y="104.875" width="35.812" height="48.313" filterUnits="userSpaceOnUse" color-interpolation-filters="sRGB">
<feFlood flood-opacity="0" result="BackgroundImageFix"/>
<feColorMatrix in="SourceAlpha" type="matrix" values="0 0 0 0 0 0 0 0 0 0 0 0 0 0 0 0 0 0 127 0" result="hardAlpha"/>
<feOffset dy="4"/>
<feGaussianBlur stdDeviation="2"/>
<feColorMatrix type="matrix" values="0 0 0 0 0 0 0 0 0 0 0 0 0 0 0 0 0 0 0.3 0"/>
<feBlend mode="normal" in2="BackgroundImageFix" result="effect1_dropShadow_216_149"/>
<feColorMatrix in="SourceAlpha" type="matrix" values="0 0 0 0 0 0 0 0 0 0 0 0 0 0 0 0 0 0 127 0" result="hardAlpha"/>
<feOffset dy="8"/>
<feGaussianBlur stdDeviation="6"/>
<feColorMatrix type="matrix" values="0 0 0 0 0 0 0 0 0 0 0 0 0 0 0 0 0 0 0.15 0"/>
<feBlend mode="normal" in2="effect1_dropShadow_216_149" result="effect2_dropShadow_216_149"/>
<feBlend mode="normal" in="SourceGraphic" in2="effect2_dropShadow_216_149" result="shape"/>
</filter>
<filter id="filter7_dd_216_149" x="502.125" y="104.875" width="28" height="31.125" filterUnits="userSpaceOnUse" color-interpolation-filters="sRGB">
<feFlood flood-opacity="0" result="BackgroundImageFix"/>
<feColorMatrix in="SourceAlpha" type="matrix" values="0 0 0 0 0 0 0 0 0 0 0 0 0 0 0 0 0 0 127 0" result="hardAlpha"/>
<feOffset dy="4"/>
<feGaussianBlur stdDeviation="2"/>
<feColorMatrix type="matrix" values="0 0 0 0 0 0 0 0 0 0 0 0 0 0 0 0 0 0 0.3 0"/>
<feBlend mode="normal" in2="BackgroundImageFix" result="effect1_dropShadow_216_149"/>
<feColorMatrix in="SourceAlpha" type="matrix" values="0 0 0 0 0 0 0 0 0 0 0 0 0 0 0 0 0 0 127 0" result="hardAlpha"/>
<feOffset dy="8"/>
<feGaussianBlur stdDeviation="6"/>
<feColorMatrix type="matrix" values="0 0 0 0 0 0 0 0 0 0 0 0 0 0 0 0 0 0 0.15 0"/>
<feBlend mode="normal" in2="effect1_dropShadow_216_149" result="effect2_dropShadow_216_149"/>
<feBlend mode="normal" in="SourceGraphic" in2="effect2_dropShadow_216_149" result="shape"/>
</filter>
<filter id="filter8_dd_216_149" x="470.875" y="104.875" width="28" height="31.125" filterUnits="userSpaceOnUse" color-interpolation-filters="sRGB">
<feFlood flood-opacity="0" result="BackgroundImageFix"/>
<feColorMatrix in="SourceAlpha" type="matrix" values="0 0 0 0 0 0 0 0 0 0 0 0 0 0 0 0 0 0 127 0" result="hardAlpha"/>
<feOffset dy="4"/>
<feGaussianBlur stdDeviation="2"/>
<feColorMatrix type="matrix" values="0 0 0 0 0 0 0 0 0 0 0 0 0 0 0 0 0 0 0.3 0"/>
<feBlend mode="normal" in2="BackgroundImageFix" result="effect1_dropShadow_216_149"/>
<feColorMatrix in="SourceAlpha" type="matrix" values="0 0 0 0 0 0 0 0 0 0 0 0 0 0 0 0 0 0 127 0" result="hardAlpha"/>
<feOffset dy="8"/>
<feGaussianBlur stdDeviation="6"/>
<feColorMatrix type="matrix" values="0 0 0 0 0 0 0 0 0 0 0 0 0 0 0 0 0 0 0.15 0"/>
<feBlend mode="normal" in2="effect1_dropShadow_216_149" result="effect2_dropShadow_216_149"/>
<feBlend mode="normal" in="SourceGraphic" in2="effect2_dropShadow_216_149" result="shape"/>
</filter>
<filter id="filter9_dd_216_149" x="53.671" y="44.7733" width="150.492" height="115.968" filterUnits="userSpaceOnUse" color-interpolation-filters="sRGB">
<feFlood flood-opacity="0" result="BackgroundImageFix"/>
<feColorMatrix in="SourceAlpha" type="matrix" values="0 0 0 0 0 0 0 0 0 0 0 0 0 0 0 0 0 0 127 0" result="hardAlpha"/>
<feOffset dy="4"/>
<feGaussianBlur stdDeviation="2"/>
<feColorMatrix type="matrix" values="0 0 0 0 0 0 0 0 0 0 0 0 0 0 0 0 0 0 0.3 0"/>
<feBlend mode="normal" in2="BackgroundImageFix" result="effect1_dropShadow_216_149"/>
<feColorMatrix in="SourceAlpha" type="matrix" values="0 0 0 0 0 0 0 0 0 0 0 0 0 0 0 0 0 0 127 0" result="hardAlpha"/>
<feOffset dy="8"/>
<feGaussianBlur stdDeviation="6"/>
<feColorMatrix type="matrix" values="0 0 0 0 0 0 0 0 0 0 0 0 0 0 0 0 0 0 0.15 0"/>
<feBlend mode="normal" in2="effect1_dropShadow_216_149" result="effect2_dropShadow_216_149"/>
<feBlend mode="normal" in="SourceGraphic" in2="effect2_dropShadow_216_149" result="shape"/>
</filter>
<filter id="filter10_dd_216_149" x="206.309" y="208.584" width="177" height="162.416" filterUnits="userSpaceOnUse" color-interpolation-filters="sRGB">
<feFlood flood-opacity="0" result="BackgroundImageFix"/>
<feColorMatrix in="SourceAlpha" type="matrix" values="0 0 0 0 0 0 0 0 0 0 0 0 0 0 0 0 0 0 127 0" result="hardAlpha"/>
<feOffset dy="4"/>
<feGaussianBlur stdDeviation="2"/>
<feColorMatrix type="matrix" values="0 0 0 0 0 0 0 0 0 0 0 0 0 0 0 0 0 0 0.3 0"/>
<feBlend mode="normal" in2="BackgroundImageFix" result="effect1_dropShadow_216_149"/>
<feColorMatrix in="SourceAlpha" type="matrix" values="0 0 0 0 0 0 0 0 0 0 0 0 0 0 0 0 0 0 127 0" result="hardAlpha"/>
<feOffset dy="8"/>
<feGaussianBlur stdDeviation="6"/>
<feColorMatrix type="matrix" values="0 0 0 0 0 0 0 0 0 0 0 0 0 0 0 0 0 0 0.15 0"/>
<feBlend mode="normal" in2="effect1_dropShadow_216_149" result="effect2_dropShadow_216_149"/>
<feBlend mode="normal" in="SourceGraphic" in2="effect2_dropShadow_216_149" result="shape"/>
</filter>
<filter id="filter11_dd_216_149" x="244.272" y="239.022" width="110.416" height="63.5894" filterUnits="userSpaceOnUse" color-interpolation-filters="sRGB">
<feFlood flood-opacity="0" result="BackgroundImageFix"/>
<feColorMatrix in="SourceAlpha" type="matrix" values="0 0 0 0 0 0 0 0 0 0 0 0 0 0 0 0 0 0 127 0" result="hardAlpha"/>
<feOffset dy="4"/>
<feGaussianBlur stdDeviation="2"/>
<feColorMatrix type="matrix" values="0 0 0 0 0 0 0 0 0 0 0 0 0 0 0 0 0 0 0.3 0"/>
<feBlend mode="normal" in2="BackgroundImageFix" result="effect1_dropShadow_216_149"/>
<feColorMatrix in="SourceAlpha" type="matrix" values="0 0 0 0 0 0 0 0 0 0 0 0 0 0 0 0 0 0 127 0" result="hardAlpha"/>
<feOffset dy="8"/>
<feGaussianBlur stdDeviation="6"/>
<feColorMatrix type="matrix" values="0 0 0 0 0 0 0 0 0 0 0 0 0 0 0 0 0 0 0.15 0"/>
<feBlend mode="normal" in2="effect1_dropShadow_216_149" result="effect2_dropShadow_216_149"/>
<feBlend mode="normal" in="SourceGraphic" in2="effect2_dropShadow_216_149" result="shape"/>
</filter>
<filter id="filter12_dd_216_149" x="71" y="430" width="95.619" height="96" filterUnits="userSpaceOnUse" color-interpolation-filters="sRGB">
<feFlood flood-opacity="0" result="BackgroundImageFix"/>
<feColorMatrix in="SourceAlpha" type="matrix" values="0 0 0 0 0 0 0 0 0 0 0 0 0 0 0 0 0 0 127 0" result="hardAlpha"/>
<feOffset dy="4"/>
<feGaussianBlur stdDeviation="2"/>
<feColorMatrix type="matrix" values="0 0 0 0 0 0 0 0 0 0 0 0 0 0 0 0 0 0 0.3 0"/>
<feBlend mode="normal" in2="BackgroundImageFix" result="effect1_dropShadow_216_149"/>
<feColorMatrix in="SourceAlpha" type="matrix" values="0 0 0 0 0 0 0 0 0 0 0 0 0 0 0 0 0 0 127 0" result="hardAlpha"/>
<feOffset dy="8"/>
<feGaussianBlur stdDeviation="6"/>
<feColorMatrix type="matrix" values="0 0 0 0 0 0 0 0 0 0 0 0 0 0 0 0 0 0 0.15 0"/>
<feBlend mode="normal" in2="effect1_dropShadow_216_149" result="effect2_dropShadow_216_149"/>
<feBlend mode="normal" in="SourceGraphic" in2="effect2_dropShadow_216_149" result="shape"/>
</filter>
<clipPath id="clip0_216_149">
<rect width="562" height="550" fill="white"/>
</clipPath>
</defs>
</svg>
