<svg xmlns="http://www.w3.org/2000/svg" xmlns:xlink="http://www.w3.org/1999/xlink" width="220" zoomAndPan="magnify" viewBox="0 0 165 52.499999" height="70" preserveAspectRatio="xMidYMid meet" version="1.0"><defs><g/><clipPath id="4d32b5a9ca"><path d="M 16.191406 9.65625 L 50.363281 9.65625 L 50.363281 43.828125 L 16.191406 43.828125 Z M 16.191406 9.65625 " clip-rule="nonzero"/></clipPath><clipPath id="6fce65961b"><path d="M 33.277344 9.65625 C 23.839844 9.65625 16.191406 17.308594 16.191406 26.742188 C 16.191406 36.179688 23.839844 43.828125 33.277344 43.828125 C 42.710938 43.828125 50.363281 36.179688 50.363281 26.742188 C 50.363281 17.308594 42.710938 9.65625 33.277344 9.65625 Z M 33.277344 9.65625 " clip-rule="nonzero"/></clipPath><clipPath id="cda994c560"><path d="M 19.445312 19 L 46.933594 19 L 46.933594 35 L 19.445312 35 Z M 19.445312 19 " clip-rule="nonzero"/></clipPath><clipPath id="f2a1b78940"><path d="M 24 15.222656 L 43 15.222656 L 43 21 L 24 21 Z M 24 15.222656 " clip-rule="nonzero"/></clipPath></defs><g clip-path="url(#4d32b5a9ca)"><g clip-path="url(#6fce65961b)"><path fill="#ffffff" d="M 16.191406 9.65625 L 50.363281 9.65625 L 50.363281 43.828125 L 16.191406 43.828125 Z M 16.191406 9.65625 " fill-opacity="1" fill-rule="nonzero"/></g></g><g clip-path="url(#cda994c560)"><path fill="#192b55" d="M 46.664062 23.871094 C 45.671875 21.855469 42.996094 20.957031 40.933594 21.199219 C 40.519531 21.777344 40.402344 23.171875 40.0625 23.851562 L 40.207031 24.589844 C 37.375 24.234375 33.207031 26.28125 32.675781 22.066406 C 27.160156 21.769531 23.765625 27.226562 23.988281 27.277344 C 22.144531 27.695312 20.886719 30.433594 20.886719 30.433594 C 20.476562 24.058594 28.394531 19 34.550781 21.949219 C 34.542969 22.023438 34.535156 22.097656 34.535156 22.175781 C 34.535156 23.023438 35.222656 23.710938 36.066406 23.710938 C 36.390625 23.710938 36.691406 23.609375 36.9375 23.4375 C 37.035156 23.375 37.128906 23.296875 37.210938 23.203125 C 37.214844 23.195312 37.21875 23.1875 37.222656 23.183594 C 37.40625 22.972656 37.53125 22.710938 37.578125 22.417969 C 37.738281 22.171875 37.851562 22.328125 38.652344 22.117188 C 38.757812 22.039062 39.125 21.183594 39.085938 21.148438 C 36.71875 21.585938 34.648438 20.019531 32.429688 19.425781 C 26.183594 18.054688 18.59375 21.144531 19.523438 28.550781 C 19.636719 30.71875 20.464844 33.207031 21.871094 34.855469 C 23.273438 34.820312 24.6875 34.828125 26.097656 34.832031 C 24.660156 30.820312 27.320312 25.488281 31.269531 24.269531 C 33.191406 28.339844 37.480469 25.488281 41.007812 26.035156 C 38.566406 26.3125 35.625 26.542969 36.152344 29.796875 C 36.53125 32.265625 40.640625 35.257812 43.125 34.90625 C 43.453125 34.859375 43.519531 34.6875 43.480469 34.367188 C 41.507812 33.363281 37.351562 30 39.808594 27.757812 C 40.570312 27.246094 42.929688 27.203125 43.832031 27.335938 C 44.484375 27.429688 45.03125 28.070312 45.203125 28.6875 C 45.25 28.863281 45.292969 29.703125 45.457031 29.710938 C 47.078125 28.429688 47.546875 25.710938 46.660156 23.871094 Z M 46.664062 23.871094 " fill-opacity="1" fill-rule="nonzero"/></g><path fill="#192b55" d="M 32.589844 26.671875 C 31.679688 28.175781 32.007812 30.339844 32.878906 31.785156 C 33.703125 33.152344 34.894531 33.972656 36.199219 34.832031 C 34.996094 34.835938 33.792969 34.832031 32.589844 34.832031 C 32.226562 34.449219 31.785156 34.199219 31.425781 33.792969 C 30.773438 33.050781 30.328125 32.121094 30.144531 31.152344 C 29.714844 32.351562 30.023438 33.730469 30.585938 34.832031 C 30 34.832031 29.410156 34.832031 28.824219 34.832031 C 27.46875 32.214844 28.644531 28.316406 31.070312 26.714844 C 31.511719 26.425781 32.378906 25.917969 32.589844 26.671875 Z M 32.589844 26.671875 " fill-opacity="1" fill-rule="nonzero"/><g clip-path="url(#f2a1b78940)"><path fill="#192b55" d="M 42.289062 20.269531 L 40.566406 20.269531 C 40.484375 20.269531 39.414062 19.457031 39.1875 19.328125 C 34.960938 16.839844 29.332031 16.671875 24.652344 17.789062 C 24.691406 17.679688 24.808594 17.585938 24.898438 17.515625 C 29.75 13.835938 38.050781 14.640625 41.808594 19.511719 C 41.976562 19.726562 42.1875 20.019531 42.289062 20.269531 Z M 42.289062 20.269531 " fill-opacity="1" fill-rule="nonzero"/></g><path fill="#85c5ff" d="M 31.949219 22.0625 C 30.503906 22.359375 29.050781 22.746094 27.765625 23.484375 C 26.761719 24.058594 25.425781 25.140625 24.742188 26.070312 C 24.488281 26.414062 24.292969 26.988281 24.019531 27.269531 C 23.488281 27.816406 22.617188 28.179688 21.976562 28.910156 C 21.558594 29.378906 21.269531 29.933594 20.894531 30.429688 L 20.894531 29.109375 C 20.894531 27.664062 22.132812 25.589844 23.058594 24.507812 C 23.25 24.546875 23.304688 24.433594 23.421875 24.351562 C 26.265625 22.324219 28.40625 21.71875 31.949219 22.0625 Z M 31.949219 22.0625 " fill-opacity="1" fill-rule="nonzero"/><path fill="#85c5ff" d="M 32.589844 34.832031 C 31.925781 34.832031 31.253906 34.832031 30.585938 34.832031 C 30.023438 33.730469 29.714844 32.351562 30.144531 31.152344 C 30.328125 32.121094 30.773438 33.050781 31.425781 33.792969 C 31.785156 34.203125 32.226562 34.449219 32.589844 34.832031 Z M 32.589844 34.832031 " fill-opacity="1" fill-rule="nonzero"/><path fill="#85c5ff" d="M 20.886719 30.433594 C 20.886719 30.433594 20.03125 21.164062 31.949219 22.0625 C 31.949219 22.0625 27.089844 22.019531 24.011719 27.273438 C 24.011719 27.273438 22.242188 27.457031 20.886719 30.433594 Z M 20.886719 30.433594 " fill-opacity="1" fill-rule="nonzero"/><path fill="#85c5ff" d="M 32.15625 25.550781 C 32.089844 25.492188 32.027344 25.4375 31.988281 25.390625 C 31.953125 25.351562 31.914062 25.300781 31.875 25.246094 C 31.652344 24.976562 31.449219 24.65625 31.269531 24.269531 C 27.464844 25.445312 24.859375 30.433594 25.957031 34.386719 C 26 34.535156 26.046875 34.683594 26.097656 34.832031 C 27.003906 34.835938 27.917969 34.832031 28.824219 34.832031 C 27.46875 32.214844 28.644531 28.316406 31.074219 26.714844 C 31.511719 26.425781 32.378906 25.917969 32.589844 26.671875 C 32.644531 26.578125 32.765625 26.335938 32.929688 26.101562 C 32.90625 26.09375 32.882812 26.078125 32.851562 26.0625 C 32.605469 25.929688 32.375 25.761719 32.15625 25.550781 Z M 32.15625 25.550781 " fill-opacity="1" fill-rule="nonzero"/><g fill="#ffffff" fill-opacity="1"><g transform="translate(56.316411, 31.340927)"><g><path d="M 4.671875 -8.40625 C 4.398438 -8.40625 4.175781 -8.335938 4 -8.203125 C 3.832031 -8.066406 3.75 -7.898438 3.75 -7.703125 C 3.75 -7.421875 3.890625 -7.191406 4.171875 -7.015625 C 4.460938 -6.835938 4.984375 -6.65625 5.734375 -6.46875 C 6.953125 -6.144531 7.8125 -5.722656 8.3125 -5.203125 C 8.820312 -4.691406 9.078125 -4.035156 9.078125 -3.234375 C 9.078125 -2.515625 8.882812 -1.882812 8.5 -1.34375 C 8.125 -0.800781 7.609375 -0.378906 6.953125 -0.078125 C 6.296875 0.210938 5.566406 0.359375 4.765625 0.359375 C 3.566406 0.359375 2.578125 0.0390625 1.796875 -0.59375 C 1.015625 -1.226562 0.566406 -2.078125 0.453125 -3.140625 L 3.609375 -3.140625 C 3.648438 -2.828125 3.773438 -2.585938 3.984375 -2.421875 C 4.203125 -2.253906 4.472656 -2.171875 4.796875 -2.171875 C 5.097656 -2.171875 5.359375 -2.242188 5.578125 -2.390625 C 5.796875 -2.546875 5.90625 -2.75 5.90625 -3 C 5.90625 -3.300781 5.773438 -3.546875 5.515625 -3.734375 C 5.253906 -3.921875 4.738281 -4.140625 3.96875 -4.390625 C 2.707031 -4.765625 1.828125 -5.207031 1.328125 -5.71875 C 0.835938 -6.226562 0.59375 -6.816406 0.59375 -7.484375 C 0.59375 -8.160156 0.78125 -8.757812 1.15625 -9.28125 C 1.539062 -9.8125 2.046875 -10.21875 2.671875 -10.5 C 3.304688 -10.789062 3.976562 -10.9375 4.6875 -10.9375 C 5.84375 -10.9375 6.789062 -10.640625 7.53125 -10.046875 C 8.269531 -9.453125 8.675781 -8.640625 8.75 -7.609375 L 5.640625 -7.609375 C 5.628906 -8.140625 5.304688 -8.40625 4.671875 -8.40625 Z M 4.671875 -8.40625 "/></g></g></g><g fill="#ffffff" fill-opacity="1"><g transform="translate(65.830247, 31.340927)"><g><path d="M 6.171875 -2.328125 C 6.597656 -2.328125 6.957031 -2.40625 7.25 -2.5625 C 7.550781 -2.71875 7.835938 -2.96875 8.109375 -3.3125 L 11.34375 -3.3125 C 10.832031 -2.15625 10.125 -1.253906 9.21875 -0.609375 C 8.3125 0.0234375 7.296875 0.34375 6.171875 0.34375 C 5.171875 0.34375 4.238281 0.0976562 3.375 -0.390625 C 2.519531 -0.890625 1.835938 -1.566406 1.328125 -2.421875 C 0.828125 -3.285156 0.578125 -4.234375 0.578125 -5.265625 C 0.578125 -6.265625 0.820312 -7.195312 1.3125 -8.0625 C 1.8125 -8.9375 2.484375 -9.632812 3.328125 -10.15625 C 4.171875 -10.675781 5.101562 -10.9375 6.125 -10.9375 C 7.164062 -10.9375 8.109375 -10.679688 8.953125 -10.171875 C 9.804688 -9.671875 10.476562 -8.976562 10.96875 -8.09375 C 11.457031 -7.21875 11.703125 -6.242188 11.703125 -5.171875 C 11.703125 -4.859375 11.675781 -4.578125 11.625 -4.328125 L 3.703125 -4.328125 C 3.785156 -3.734375 4.054688 -3.25 4.515625 -2.875 C 4.972656 -2.507812 5.523438 -2.328125 6.171875 -2.328125 Z M 6.125 -8.265625 C 5.539062 -8.265625 5.023438 -8.101562 4.578125 -7.78125 C 4.140625 -7.457031 3.859375 -7.019531 3.734375 -6.46875 L 8.546875 -6.46875 C 8.410156 -7.007812 8.125 -7.441406 7.6875 -7.765625 C 7.25 -8.097656 6.726562 -8.265625 6.125 -8.265625 Z M 6.125 -8.265625 "/></g></g></g><g fill="#ffffff" fill-opacity="1"><g transform="translate(78.14675, 31.340927)"><g><path d="M 6.25 -7.984375 C 5.539062 -7.984375 4.957031 -7.722656 4.5 -7.203125 C 4.039062 -6.691406 3.8125 -6.054688 3.8125 -5.296875 C 3.8125 -4.523438 4.046875 -3.882812 4.515625 -3.375 C 4.984375 -2.863281 5.585938 -2.609375 6.328125 -2.609375 C 7.359375 -2.609375 8.117188 -3.078125 8.609375 -4.015625 L 11.84375 -4.015625 C 11.632812 -3.140625 11.257812 -2.375 10.71875 -1.71875 C 10.175781 -1.070312 9.519531 -0.566406 8.75 -0.203125 C 7.976562 0.160156 7.140625 0.34375 6.234375 0.34375 C 5.203125 0.34375 4.257812 0.0859375 3.40625 -0.421875 C 2.5625 -0.929688 1.882812 -1.617188 1.375 -2.484375 C 0.875 -3.347656 0.625 -4.289062 0.625 -5.3125 C 0.625 -6.34375 0.867188 -7.289062 1.359375 -8.15625 C 1.859375 -9.019531 2.535156 -9.695312 3.390625 -10.1875 C 4.242188 -10.6875 5.171875 -10.9375 6.171875 -10.9375 C 7.085938 -10.9375 7.9375 -10.753906 8.71875 -10.390625 C 9.507812 -10.023438 10.175781 -9.503906 10.71875 -8.828125 C 11.257812 -8.160156 11.625 -7.382812 11.8125 -6.5 L 8.609375 -6.5 C 8.160156 -7.488281 7.375 -7.984375 6.25 -7.984375 Z M 6.25 -7.984375 "/></g></g></g><g fill="#ffffff" fill-opacity="1"><g transform="translate(90.577647, 31.340927)"><g><path d="M 7.90625 -1.125 C 7.675781 -0.625 7.335938 -0.253906 6.890625 -0.015625 C 6.453125 0.222656 5.882812 0.34375 5.1875 0.34375 C 3.988281 0.34375 3.007812 -0.0195312 2.25 -0.75 C 1.488281 -1.476562 1.109375 -2.5625 1.109375 -4 L 1.109375 -10.578125 L 4.265625 -10.578125 L 4.265625 -4.65625 C 4.265625 -3.957031 4.398438 -3.441406 4.671875 -3.109375 C 4.941406 -2.773438 5.375 -2.609375 5.96875 -2.609375 C 6.550781 -2.609375 7 -2.789062 7.3125 -3.15625 C 7.625 -3.53125 7.78125 -4.046875 7.78125 -4.703125 L 7.78125 -10.578125 L 10.9375 -10.578125 L 10.9375 0 L 7.953125 0 L 7.953125 -1.125 Z M 7.90625 -1.125 "/></g></g></g><g fill="#ffffff" fill-opacity="1"><g transform="translate(104.140256, 30.785959)"><g><path d="M 3.515625 -8.734375 C 3.878906 -9.210938 4.300781 -9.582031 4.78125 -9.84375 C 5.269531 -10.113281 5.800781 -10.25 6.375 -10.25 C 7.269531 -10.25 7.992188 -10.03125 8.546875 -9.59375 C 9.097656 -9.164062 9.5 -8.554688 9.75 -7.765625 C 10.007812 -6.984375 10.140625 -6.066406 10.140625 -5.015625 C 10.140625 -4.003906 9.984375 -3.101562 9.671875 -2.3125 C 9.367188 -1.53125 8.925781 -0.910156 8.34375 -0.453125 C 7.757812 -0.00390625 7.035156 0.21875 6.171875 0.21875 C 5.003906 0.21875 4.09375 -0.195312 3.4375 -1.03125 L 3.3125 0 L 1.921875 0 L 1.921875 -14.078125 L 3.515625 -14.28125 Z M 5.78125 -1.078125 C 6.625 -1.078125 7.269531 -1.398438 7.71875 -2.046875 C 8.164062 -2.691406 8.390625 -3.6875 8.390625 -5.03125 C 8.390625 -5.90625 8.300781 -6.632812 8.125 -7.21875 C 7.945312 -7.800781 7.679688 -8.234375 7.328125 -8.515625 C 6.984375 -8.804688 6.550781 -8.953125 6.03125 -8.953125 C 5.46875 -8.953125 4.972656 -8.785156 4.546875 -8.453125 C 4.128906 -8.117188 3.785156 -7.75 3.515625 -7.34375 L 3.515625 -2.375 C 3.773438 -1.976562 4.101562 -1.660156 4.5 -1.421875 C 4.894531 -1.191406 5.320312 -1.078125 5.78125 -1.078125 Z M 5.78125 -1.078125 "/></g></g></g><g fill="#ffffff" fill-opacity="1"><g transform="translate(112.566926, 30.785959)"><g><path d="M 7 -10.03125 L 7 -1.265625 L 9.828125 -1.265625 L 9.828125 0 L 2.296875 0 L 2.296875 -1.265625 L 5.390625 -1.265625 L 5.390625 -8.765625 L 2.390625 -8.765625 L 2.390625 -10.03125 Z M 5.71875 -14.734375 C 6.070312 -14.734375 6.351562 -14.625 6.5625 -14.40625 C 6.78125 -14.195312 6.890625 -13.9375 6.890625 -13.625 C 6.890625 -13.300781 6.78125 -13.023438 6.5625 -12.796875 C 6.351562 -12.578125 6.070312 -12.46875 5.71875 -12.46875 C 5.382812 -12.46875 5.109375 -12.578125 4.890625 -12.796875 C 4.671875 -13.023438 4.5625 -13.300781 4.5625 -13.625 C 4.5625 -13.9375 4.671875 -14.195312 4.890625 -14.40625 C 5.109375 -14.625 5.382812 -14.734375 5.71875 -14.734375 Z M 5.71875 -14.734375 "/></g></g></g><g fill="#ffffff" fill-opacity="1"><g transform="translate(120.993597, 30.785959)"><g><path d="M 9.890625 -0.5 C 9.546875 -0.269531 9.128906 -0.09375 8.640625 0.03125 C 8.148438 0.15625 7.671875 0.21875 7.203125 0.21875 C 6.117188 0.21875 5.285156 -0.0625 4.703125 -0.625 C 4.117188 -1.195312 3.828125 -1.925781 3.828125 -2.8125 L 3.828125 -8.796875 L 1.515625 -8.796875 L 1.515625 -10.03125 L 3.828125 -10.03125 L 3.828125 -12.3125 L 5.421875 -12.5 L 5.421875 -10.03125 L 8.890625 -10.03125 L 8.703125 -8.796875 L 5.421875 -8.796875 L 5.421875 -2.828125 C 5.421875 -2.265625 5.566406 -1.835938 5.859375 -1.546875 C 6.160156 -1.253906 6.65625 -1.109375 7.34375 -1.109375 C 7.71875 -1.109375 8.0625 -1.148438 8.375 -1.234375 C 8.695312 -1.328125 8.992188 -1.445312 9.265625 -1.59375 Z M 9.890625 -0.5 "/></g></g></g><g fill="#ffffff" fill-opacity="1"><g transform="translate(139.280234, 30.785959)"><g><path d="M 7 -10.03125 L 7 -1.265625 L 9.828125 -1.265625 L 9.828125 0 L 2.296875 0 L 2.296875 -1.265625 L 5.390625 -1.265625 L 5.390625 -8.765625 L 2.390625 -8.765625 L 2.390625 -10.03125 Z M 5.71875 -14.734375 C 6.070312 -14.734375 6.351562 -14.625 6.5625 -14.40625 C 6.78125 -14.195312 6.890625 -13.9375 6.890625 -13.625 C 6.890625 -13.300781 6.78125 -13.023438 6.5625 -12.796875 C 6.351562 -12.578125 6.070312 -12.46875 5.71875 -12.46875 C 5.382812 -12.46875 5.109375 -12.578125 4.890625 -12.796875 C 4.671875 -13.023438 4.5625 -13.300781 4.5625 -13.625 C 4.5625 -13.9375 4.671875 -14.195312 4.890625 -14.40625 C 5.109375 -14.625 5.382812 -14.734375 5.71875 -14.734375 Z M 5.71875 -14.734375 "/></g></g></g><g fill="#ffffff" fill-opacity="1"><g transform="translate(147.706904, 30.785959)"><g><path d="M 5.734375 -10.25 C 6.679688 -10.25 7.472656 -10.03125 8.109375 -9.59375 C 8.753906 -9.164062 9.234375 -8.5625 9.546875 -7.78125 C 9.867188 -7 10.03125 -6.078125 10.03125 -5.015625 C 10.03125 -3.992188 9.863281 -3.085938 9.53125 -2.296875 C 9.207031 -1.515625 8.722656 -0.898438 8.078125 -0.453125 C 7.441406 -0.00390625 6.65625 0.21875 5.71875 0.21875 C 4.78125 0.21875 3.988281 0.00390625 3.34375 -0.421875 C 2.707031 -0.859375 2.222656 -1.46875 1.890625 -2.25 C 1.566406 -3.039062 1.40625 -3.957031 1.40625 -5 C 1.40625 -6.039062 1.566406 -6.953125 1.890625 -7.734375 C 2.222656 -8.523438 2.710938 -9.140625 3.359375 -9.578125 C 4.003906 -10.023438 4.796875 -10.25 5.734375 -10.25 Z M 5.734375 -8.9375 C 4.867188 -8.9375 4.210938 -8.617188 3.765625 -7.984375 C 3.328125 -7.347656 3.109375 -6.351562 3.109375 -5 C 3.109375 -3.675781 3.328125 -2.691406 3.765625 -2.046875 C 4.203125 -1.410156 4.851562 -1.09375 5.71875 -1.09375 C 6.582031 -1.09375 7.234375 -1.410156 7.671875 -2.046875 C 8.109375 -2.691406 8.328125 -3.679688 8.328125 -5.015625 C 8.328125 -6.359375 8.109375 -7.347656 7.671875 -7.984375 C 7.242188 -8.617188 6.597656 -8.9375 5.734375 -8.9375 Z M 5.734375 -8.9375 "/></g></g></g><g fill="#ffffff" fill-opacity="1"><g transform="translate(131.297133, 31.927428)"><g><path d="M 3.453125 -1.265625 C 3.453125 -1.523438 3.515625 -1.765625 3.640625 -1.984375 C 3.773438 -2.203125 3.945312 -2.375 4.15625 -2.5 C 4.375 -2.625 4.617188 -2.6875 4.890625 -2.6875 C 5.171875 -2.6875 5.421875 -2.625 5.640625 -2.5 C 5.859375 -2.375 6.03125 -2.203125 6.15625 -1.984375 C 6.28125 -1.765625 6.34375 -1.523438 6.34375 -1.265625 C 6.34375 -0.992188 6.28125 -0.75 6.15625 -0.53125 C 6.03125 -0.3125 5.859375 -0.132812 5.640625 0 C 5.421875 0.125 5.171875 0.1875 4.890625 0.1875 C 4.617188 0.1875 4.375 0.125 4.15625 0 C 3.945312 -0.132812 3.773438 -0.3125 3.640625 -0.53125 C 3.515625 -0.75 3.453125 -0.992188 3.453125 -1.265625 Z M 3.453125 -1.265625 "/></g></g></g></svg>