<svg xmlns="http://www.w3.org/2000/svg" xmlns:xlink="http://www.w3.org/1999/xlink" width="320" zoomAndPan="magnify" viewBox="0 0 247 52.499999" height="70" preserveAspectRatio="xMidYMid meet" version="1.0"><defs><g/><clipPath id="b72992ea52"><path d="M 8.457031 8.917969 L 42.628906 8.917969 L 42.628906 43.089844 L 8.457031 43.089844 Z M 8.457031 8.917969 " clip-rule="nonzero"/></clipPath><clipPath id="0ba08f9235"><path d="M 25.542969 8.917969 C 16.109375 8.917969 8.457031 16.566406 8.457031 26.003906 C 8.457031 35.4375 16.109375 43.089844 25.542969 43.089844 C 34.980469 43.089844 42.628906 35.4375 42.628906 26.003906 C 42.628906 16.566406 34.980469 8.917969 25.542969 8.917969 Z M 25.542969 8.917969 " clip-rule="nonzero"/></clipPath><clipPath id="c7af927770"><path d="M 0.457031 0.917969 L 34.628906 0.917969 L 34.628906 35.089844 L 0.457031 35.089844 Z M 0.457031 0.917969 " clip-rule="nonzero"/></clipPath><clipPath id="7d1ae00e83"><path d="M 17.542969 0.917969 C 8.109375 0.917969 0.457031 8.566406 0.457031 18.003906 C 0.457031 27.4375 8.109375 35.089844 17.542969 35.089844 C 26.980469 35.089844 34.628906 27.4375 34.628906 18.003906 C 34.628906 8.566406 26.980469 0.917969 17.542969 0.917969 Z M 17.542969 0.917969 " clip-rule="nonzero"/></clipPath><clipPath id="1997dc7862"><rect x="0" width="35" y="0" height="36"/></clipPath><clipPath id="4d8bd13955"><path d="M 11.710938 18 L 39.199219 18 L 39.199219 34.539062 L 11.710938 34.539062 Z M 11.710938 18 " clip-rule="nonzero"/></clipPath><clipPath id="4cd316f3a6"><path d="M 20 25 L 29 25 L 29 34.539062 L 20 34.539062 Z M 20 25 " clip-rule="nonzero"/></clipPath><clipPath id="d89a873c09"><path d="M 16 14.480469 L 35 14.480469 L 35 20 L 16 20 Z M 16 14.480469 " clip-rule="nonzero"/></clipPath><clipPath id="a66273b086"><path d="M 22 30 L 25 30 L 25 34.539062 L 22 34.539062 Z M 22 30 " clip-rule="nonzero"/></clipPath><clipPath id="67c0e931bd"><path d="M 17 23 L 26 23 L 26 34.539062 L 17 34.539062 Z M 17 23 " clip-rule="nonzero"/></clipPath><clipPath id="b6f6a747a5"><rect x="0" width="85" y="0" height="36"/></clipPath><clipPath id="11d49a9fa1"><rect x="0" width="36" y="0" height="46"/></clipPath><clipPath id="fbde8e7298"><rect x="0" width="15" y="0" height="40"/></clipPath></defs><g clip-path="url(#b72992ea52)"><g clip-path="url(#0ba08f9235)"><g transform="matrix(1, 0, 0, 1, 8, 8)"><g clip-path="url(#1997dc7862)"><g clip-path="url(#c7af927770)"><g clip-path="url(#7d1ae00e83)"><path fill="#ffffff" d="M 0.457031 0.917969 L 34.628906 0.917969 L 34.628906 35.089844 L 0.457031 35.089844 Z M 0.457031 0.917969 " fill-opacity="1" fill-rule="nonzero"/></g></g></g></g></g></g><g clip-path="url(#4d8bd13955)"><path fill="#192b55" d="M 38.929688 23.128906 C 37.941406 21.113281 35.265625 20.214844 33.203125 20.457031 C 32.785156 21.035156 32.667969 22.429688 32.332031 23.109375 L 32.476562 23.847656 C 29.644531 23.496094 25.476562 25.539062 24.945312 21.324219 C 19.429688 21.027344 16.03125 26.484375 16.257812 26.535156 C 14.414062 26.953125 13.15625 29.691406 13.15625 29.691406 C 12.746094 23.316406 20.664062 18.257812 26.820312 21.207031 C 26.808594 21.28125 26.800781 21.355469 26.800781 21.433594 C 26.800781 22.28125 27.488281 22.96875 28.335938 22.96875 C 28.660156 22.96875 28.960938 22.867188 29.207031 22.695312 C 29.304688 22.632812 29.394531 22.554688 29.480469 22.460938 C 29.484375 22.453125 29.488281 22.449219 29.492188 22.441406 C 29.675781 22.230469 29.800781 21.96875 29.847656 21.675781 C 30.007812 21.429688 30.121094 21.585938 30.917969 21.375 C 31.027344 21.300781 31.390625 20.441406 31.351562 20.40625 C 28.984375 20.84375 26.914062 19.277344 24.699219 18.6875 C 18.453125 17.3125 10.863281 20.402344 11.792969 27.808594 C 11.90625 29.976562 12.730469 32.464844 14.136719 34.113281 C 15.542969 34.078125 16.957031 34.085938 18.367188 34.089844 C 16.929688 30.078125 19.585938 24.75 23.535156 23.527344 C 25.460938 27.601562 29.746094 24.75 33.277344 25.292969 C 30.835938 25.570312 27.894531 25.800781 28.421875 29.054688 C 28.800781 31.523438 32.90625 34.515625 35.394531 34.164062 C 35.71875 34.117188 35.789062 33.945312 35.746094 33.625 C 33.773438 32.621094 29.621094 29.257812 32.078125 27.015625 C 32.835938 26.503906 35.195312 26.460938 36.101562 26.59375 C 36.753906 26.6875 37.300781 27.328125 37.46875 27.945312 C 37.519531 28.121094 37.558594 28.960938 37.722656 28.96875 C 39.347656 27.6875 39.8125 24.96875 38.929688 23.128906 Z M 38.929688 23.128906 " fill-opacity="1" fill-rule="nonzero"/></g><g clip-path="url(#4cd316f3a6)"><path fill="#192b55" d="M 24.859375 25.929688 C 23.949219 27.433594 24.273438 29.597656 25.144531 31.042969 C 25.972656 32.410156 27.164062 33.234375 28.46875 34.089844 C 27.265625 34.09375 26.058594 34.089844 24.859375 34.089844 C 24.492188 33.707031 24.054688 33.457031 23.695312 33.050781 C 23.039062 32.308594 22.597656 31.378906 22.414062 30.410156 C 21.984375 31.609375 22.292969 32.988281 22.855469 34.089844 C 22.269531 34.089844 21.679688 34.089844 21.089844 34.089844 C 19.734375 31.472656 20.914062 27.574219 23.339844 25.972656 C 23.777344 25.6875 24.648438 25.175781 24.859375 25.929688 Z M 24.859375 25.929688 " fill-opacity="1" fill-rule="nonzero"/></g><g clip-path="url(#d89a873c09)"><path fill="#192b55" d="M 34.558594 19.527344 L 32.835938 19.527344 C 32.75 19.527344 31.679688 18.714844 31.457031 18.585938 C 27.230469 16.097656 21.597656 15.929688 16.921875 17.046875 C 16.960938 16.9375 17.074219 16.84375 17.167969 16.773438 C 22.019531 13.097656 30.316406 13.898438 34.074219 18.769531 C 34.242188 18.988281 34.457031 19.277344 34.558594 19.527344 Z M 34.558594 19.527344 " fill-opacity="1" fill-rule="nonzero"/></g><path fill="#85c5ff" d="M 24.21875 21.320312 C 22.773438 21.617188 21.320312 22.003906 20.03125 22.742188 C 19.03125 23.320312 17.691406 24.398438 17.011719 25.328125 C 16.757812 25.671875 16.5625 26.246094 16.289062 26.527344 C 15.757812 27.074219 14.886719 27.4375 14.242188 28.167969 C 13.828125 28.640625 13.539062 29.191406 13.164062 29.6875 L 13.164062 28.367188 C 13.164062 26.921875 14.402344 24.847656 15.328125 23.769531 C 15.519531 23.804688 15.570312 23.691406 15.691406 23.609375 C 18.535156 21.582031 20.675781 20.976562 24.21875 21.320312 Z M 24.21875 21.320312 " fill-opacity="1" fill-rule="nonzero"/><g clip-path="url(#a66273b086)"><path fill="#85c5ff" d="M 24.859375 34.089844 C 24.191406 34.089844 23.523438 34.089844 22.855469 34.089844 C 22.292969 32.988281 21.984375 31.609375 22.414062 30.410156 C 22.597656 31.382812 23.039062 32.308594 23.695312 33.050781 C 24.054688 33.460938 24.492188 33.707031 24.859375 34.089844 Z M 24.859375 34.089844 " fill-opacity="1" fill-rule="nonzero"/></g><path fill="#85c5ff" d="M 13.15625 29.691406 C 13.15625 29.691406 12.296875 20.421875 24.214844 21.320312 C 24.214844 21.320312 19.359375 21.28125 16.28125 26.53125 C 16.28125 26.53125 14.511719 26.714844 13.15625 29.691406 Z M 13.15625 29.691406 " fill-opacity="1" fill-rule="nonzero"/><g clip-path="url(#67c0e931bd)"><path fill="#85c5ff" d="M 24.425781 24.8125 C 24.355469 24.75 24.296875 24.695312 24.257812 24.648438 C 24.21875 24.609375 24.183594 24.558594 24.144531 24.503906 C 23.921875 24.234375 23.71875 23.914062 23.539062 23.527344 C 19.734375 24.703125 17.128906 29.691406 18.226562 33.644531 C 18.269531 33.792969 18.316406 33.941406 18.367188 34.089844 C 19.273438 34.09375 20.183594 34.089844 21.09375 34.089844 C 19.738281 31.472656 20.914062 27.574219 23.34375 25.972656 C 23.78125 25.6875 24.648438 25.175781 24.859375 25.929688 C 24.914062 25.835938 25.035156 25.59375 25.199219 25.363281 C 25.175781 25.351562 25.148438 25.335938 25.121094 25.320312 C 24.875 25.1875 24.644531 25.019531 24.425781 24.808594 Z M 24.425781 24.8125 " fill-opacity="1" fill-rule="nonzero"/></g><g transform="matrix(1, 0, 0, 1, 53, 9)"><g clip-path="url(#b6f6a747a5)"><g fill="#ffffff" fill-opacity="1"><g transform="translate(1.093061, 26.63257)"><g><path d="M 8.359375 -15.03125 C 7.878906 -15.03125 7.484375 -14.910156 7.171875 -14.671875 C 6.867188 -14.429688 6.71875 -14.132812 6.71875 -13.78125 C 6.71875 -13.28125 6.972656 -12.867188 7.484375 -12.546875 C 7.992188 -12.222656 8.921875 -11.894531 10.265625 -11.5625 C 12.441406 -10.988281 13.976562 -10.238281 14.875 -9.3125 C 15.78125 -8.394531 16.234375 -7.222656 16.234375 -5.796875 C 16.234375 -4.503906 15.890625 -3.375 15.203125 -2.40625 C 14.523438 -1.4375 13.597656 -0.6875 12.421875 -0.15625 C 11.253906 0.375 9.957031 0.640625 8.53125 0.640625 C 6.382812 0.640625 4.613281 0.0703125 3.21875 -1.0625 C 1.820312 -2.195312 1.019531 -3.71875 0.8125 -5.625 L 6.4375 -5.625 C 6.53125 -5.050781 6.765625 -4.617188 7.140625 -4.328125 C 7.515625 -4.035156 8 -3.890625 8.59375 -3.890625 C 9.113281 -3.890625 9.570312 -4.023438 9.96875 -4.296875 C 10.363281 -4.566406 10.5625 -4.921875 10.5625 -5.359375 C 10.5625 -5.898438 10.328125 -6.335938 9.859375 -6.671875 C 9.398438 -7.015625 8.476562 -7.40625 7.09375 -7.84375 C 4.84375 -8.519531 3.273438 -9.3125 2.390625 -10.21875 C 1.503906 -11.132812 1.0625 -12.195312 1.0625 -13.40625 C 1.0625 -14.601562 1.398438 -15.671875 2.078125 -16.609375 C 2.765625 -17.554688 3.671875 -18.285156 4.796875 -18.796875 C 5.921875 -19.304688 7.117188 -19.5625 8.390625 -19.5625 C 10.453125 -19.5625 12.140625 -19.023438 13.453125 -17.953125 C 14.773438 -16.890625 15.507812 -15.441406 15.65625 -13.609375 L 10.09375 -13.609375 C 10.070312 -14.554688 9.492188 -15.03125 8.359375 -15.03125 Z M 8.359375 -15.03125 "/></g></g></g><g fill="#ffffff" fill-opacity="1"><g transform="translate(18.106754, 26.63257)"><g><path d="M 11.046875 -4.15625 C 11.796875 -4.15625 12.4375 -4.296875 12.96875 -4.578125 C 13.507812 -4.867188 14.015625 -5.320312 14.484375 -5.9375 L 20.28125 -5.9375 C 19.375 -3.863281 18.109375 -2.253906 16.484375 -1.109375 C 14.859375 0.0351562 13.046875 0.609375 11.046875 0.609375 C 9.253906 0.609375 7.585938 0.164062 6.046875 -0.71875 C 4.515625 -1.601562 3.289062 -2.8125 2.375 -4.34375 C 1.46875 -5.875 1.015625 -7.5625 1.015625 -9.40625 C 1.015625 -11.207031 1.457031 -12.882812 2.34375 -14.4375 C 3.238281 -16 4.441406 -17.242188 5.953125 -18.171875 C 7.460938 -19.097656 9.125 -19.5625 10.9375 -19.5625 C 12.800781 -19.5625 14.492188 -19.109375 16.015625 -18.203125 C 17.546875 -17.296875 18.75 -16.054688 19.625 -14.484375 C 20.5 -12.921875 20.9375 -11.171875 20.9375 -9.234375 C 20.9375 -8.691406 20.890625 -8.191406 20.796875 -7.734375 L 6.609375 -7.734375 C 6.773438 -6.671875 7.265625 -5.804688 8.078125 -5.140625 C 8.898438 -4.484375 9.890625 -4.15625 11.046875 -4.15625 Z M 10.9375 -14.796875 C 9.894531 -14.796875 8.976562 -14.503906 8.1875 -13.921875 C 7.40625 -13.347656 6.90625 -12.5625 6.6875 -11.5625 L 15.28125 -11.5625 C 15.050781 -12.539062 14.539062 -13.320312 13.75 -13.90625 C 12.96875 -14.5 12.03125 -14.796875 10.9375 -14.796875 Z M 10.9375 -14.796875 "/></g></g></g><g fill="#ffffff" fill-opacity="1"><g transform="translate(40.132488, 26.63257)"><g><path d="M 11.1875 -14.28125 C 9.914062 -14.28125 8.867188 -13.820312 8.046875 -12.90625 C 7.222656 -11.988281 6.8125 -10.847656 6.8125 -9.484375 C 6.8125 -8.085938 7.234375 -6.9375 8.078125 -6.03125 C 8.921875 -5.125 10 -4.671875 11.3125 -4.671875 C 13.15625 -4.671875 14.519531 -5.507812 15.40625 -7.1875 L 21.171875 -7.1875 C 20.804688 -5.625 20.140625 -4.253906 19.171875 -3.078125 C 18.210938 -1.910156 17.035156 -1.003906 15.640625 -0.359375 C 14.253906 0.285156 12.757812 0.609375 11.15625 0.609375 C 9.3125 0.609375 7.625 0.15625 6.09375 -0.75 C 4.570312 -1.65625 3.363281 -2.878906 2.46875 -4.421875 C 1.570312 -5.972656 1.125 -7.671875 1.125 -9.515625 C 1.125 -11.359375 1.566406 -13.050781 2.453125 -14.59375 C 3.335938 -16.132812 4.539062 -17.347656 6.0625 -18.234375 C 7.59375 -19.117188 9.253906 -19.5625 11.046875 -19.5625 C 12.679688 -19.5625 14.203125 -19.234375 15.609375 -18.578125 C 17.023438 -17.921875 18.210938 -16.992188 19.171875 -15.796875 C 20.140625 -14.609375 20.796875 -13.21875 21.140625 -11.625 L 15.40625 -11.625 C 14.59375 -13.394531 13.1875 -14.28125 11.1875 -14.28125 Z M 11.1875 -14.28125 "/></g></g></g><g fill="#ffffff" fill-opacity="1"><g transform="translate(62.362795, 26.63257)"><g><path d="M 14.15625 -2.015625 C 13.738281 -1.128906 13.132812 -0.46875 12.34375 -0.03125 C 11.550781 0.394531 10.53125 0.609375 9.28125 0.609375 C 7.132812 0.609375 5.378906 -0.0390625 4.015625 -1.34375 C 2.660156 -2.65625 1.984375 -4.59375 1.984375 -7.15625 L 1.984375 -18.921875 L 7.640625 -18.921875 L 7.640625 -8.3125 C 7.640625 -7.0625 7.875 -6.140625 8.34375 -5.546875 C 8.820312 -4.960938 9.597656 -4.671875 10.671875 -4.671875 C 11.710938 -4.671875 12.507812 -5 13.0625 -5.65625 C 13.625 -6.3125 13.90625 -7.234375 13.90625 -8.421875 L 13.90625 -18.921875 L 19.5625 -18.921875 L 19.5625 0 L 14.21875 0 L 14.21875 -2.015625 Z M 14.15625 -2.015625 "/></g></g></g></g></g><g fill="#ffffff" fill-opacity="1"><g transform="translate(138.335383, 35.736597)"><g><path d="M 6.296875 -15.609375 C 6.953125 -16.472656 7.707031 -17.140625 8.5625 -17.609375 C 9.425781 -18.085938 10.375 -18.328125 11.40625 -18.328125 C 13.007812 -18.328125 14.304688 -17.9375 15.296875 -17.15625 C 16.285156 -16.382812 17.003906 -15.296875 17.453125 -13.890625 C 17.910156 -12.492188 18.140625 -10.859375 18.140625 -8.984375 C 18.140625 -7.171875 17.863281 -5.554688 17.3125 -4.140625 C 16.769531 -2.734375 15.972656 -1.625 14.921875 -0.8125 C 13.867188 -0.0078125 12.570312 0.390625 11.03125 0.390625 C 8.945312 0.390625 7.316406 -0.359375 6.140625 -1.859375 L 5.9375 0 L 3.421875 0 L 3.421875 -25.171875 L 6.296875 -25.53125 Z M 10.34375 -1.921875 C 11.84375 -1.921875 12.992188 -2.5 13.796875 -3.65625 C 14.609375 -4.820312 15.015625 -6.601562 15.015625 -9 C 15.015625 -10.570312 14.851562 -11.875 14.53125 -12.90625 C 14.21875 -13.945312 13.742188 -14.726562 13.109375 -15.25 C 12.484375 -15.769531 11.710938 -16.03125 10.796875 -16.03125 C 9.796875 -16.03125 8.914062 -15.726562 8.15625 -15.125 C 7.394531 -14.53125 6.773438 -13.867188 6.296875 -13.140625 L 6.296875 -4.25 C 6.753906 -3.539062 7.335938 -2.972656 8.046875 -2.546875 C 8.765625 -2.128906 9.53125 -1.921875 10.34375 -1.921875 Z M 10.34375 -1.921875 "/></g></g></g><g fill="#ffffff" fill-opacity="1"><g transform="translate(154.692395, 35.736597)"><g><path d="M 12.515625 -17.953125 L 12.515625 -2.265625 L 17.578125 -2.265625 L 17.578125 0 L 4.109375 0 L 4.109375 -2.265625 L 9.65625 -2.265625 L 9.65625 -15.6875 L 4.28125 -15.6875 L 4.28125 -17.953125 Z M 10.234375 -26.359375 C 10.867188 -26.359375 11.375 -26.164062 11.75 -25.78125 C 12.132812 -25.394531 12.328125 -24.921875 12.328125 -24.359375 C 12.328125 -23.773438 12.132812 -23.285156 11.75 -22.890625 C 11.375 -22.503906 10.867188 -22.3125 10.234375 -22.3125 C 9.628906 -22.3125 9.132812 -22.503906 8.75 -22.890625 C 8.363281 -23.285156 8.171875 -23.773438 8.171875 -24.359375 C 8.171875 -24.921875 8.363281 -25.394531 8.75 -25.78125 C 9.132812 -26.164062 9.628906 -26.359375 10.234375 -26.359375 Z M 10.234375 -26.359375 "/></g></g></g><g fill="#ffffff" fill-opacity="1"><g transform="translate(171.049407, 35.736597)"><g><path d="M 17.671875 -0.90625 C 17.054688 -0.5 16.3125 -0.179688 15.4375 0.046875 C 14.5625 0.273438 13.707031 0.390625 12.875 0.390625 C 10.9375 0.390625 9.441406 -0.113281 8.390625 -1.125 C 7.347656 -2.132812 6.828125 -3.4375 6.828125 -5.03125 L 6.828125 -15.734375 L 2.703125 -15.734375 L 2.703125 -17.953125 L 6.828125 -17.953125 L 6.828125 -22.03125 L 9.703125 -22.359375 L 9.703125 -17.953125 L 15.90625 -17.953125 L 15.5625 -15.734375 L 9.703125 -15.734375 L 9.703125 -5.0625 C 9.703125 -4.0625 9.960938 -3.300781 10.484375 -2.78125 C 11.015625 -2.257812 11.894531 -2 13.125 -2 C 13.789062 -2 14.410156 -2.078125 14.984375 -2.234375 C 15.554688 -2.390625 16.082031 -2.59375 16.5625 -2.84375 Z M 17.671875 -0.90625 "/></g></g></g><g transform="matrix(1, 0, 0, 1, 201, 1)"><g clip-path="url(#11d49a9fa1)"><g fill="#ffffff" fill-opacity="1"><g transform="translate(1.458168, 33.640114)"><g><path d="M 12.515625 -17.953125 L 12.515625 -2.265625 L 17.578125 -2.265625 L 17.578125 0 L 4.109375 0 L 4.109375 -2.265625 L 9.65625 -2.265625 L 9.65625 -15.6875 L 4.28125 -15.6875 L 4.28125 -17.953125 Z M 10.234375 -26.359375 C 10.867188 -26.359375 11.375 -26.164062 11.75 -25.78125 C 12.132812 -25.394531 12.328125 -24.921875 12.328125 -24.359375 C 12.328125 -23.773438 12.132812 -23.285156 11.75 -22.890625 C 11.375 -22.503906 10.867188 -22.3125 10.234375 -22.3125 C 9.628906 -22.3125 9.132812 -22.503906 8.75 -22.890625 C 8.363281 -23.285156 8.171875 -23.773438 8.171875 -24.359375 C 8.171875 -24.921875 8.363281 -25.394531 8.75 -25.78125 C 9.132812 -26.164062 9.628906 -26.359375 10.234375 -26.359375 Z M 10.234375 -26.359375 "/></g></g></g><g fill="#ffffff" fill-opacity="1"><g transform="translate(16.527684, 33.640114)"><g><path d="M 10.265625 -18.328125 C 11.953125 -18.328125 13.367188 -17.941406 14.515625 -17.171875 C 15.660156 -16.410156 16.519531 -15.328125 17.09375 -13.921875 C 17.664062 -12.523438 17.953125 -10.878906 17.953125 -8.984375 C 17.953125 -7.148438 17.65625 -5.53125 17.0625 -4.125 C 16.46875 -2.71875 15.597656 -1.613281 14.453125 -0.8125 C 13.316406 -0.0078125 11.910156 0.390625 10.234375 0.390625 C 8.546875 0.390625 7.128906 0.00390625 5.984375 -0.765625 C 4.835938 -1.535156 3.96875 -2.625 3.375 -4.03125 C 2.789062 -5.4375 2.5 -7.078125 2.5 -8.953125 C 2.5 -10.804688 2.796875 -12.4375 3.390625 -13.84375 C 3.984375 -15.25 4.851562 -16.347656 6 -17.140625 C 7.15625 -17.929688 8.578125 -18.328125 10.265625 -18.328125 Z M 10.265625 -15.984375 C 8.710938 -15.984375 7.539062 -15.410156 6.75 -14.265625 C 5.96875 -13.128906 5.578125 -11.359375 5.578125 -8.953125 C 5.578125 -6.585938 5.960938 -4.828125 6.734375 -3.671875 C 7.515625 -2.523438 8.679688 -1.953125 10.234375 -1.953125 C 11.773438 -1.953125 12.929688 -2.523438 13.703125 -3.671875 C 14.484375 -4.828125 14.875 -6.597656 14.875 -8.984375 C 14.875 -11.367188 14.488281 -13.128906 13.71875 -14.265625 C 12.945312 -15.410156 11.796875 -15.984375 10.265625 -15.984375 Z M 10.265625 -15.984375 "/></g></g></g></g></g><g transform="matrix(1, 0, 0, 1, 187, 7)"><g clip-path="url(#fbde8e7298)"><g fill="#ffffff" fill-opacity="1"><g transform="translate(1.1819, 29.681418)"><g><path d="M 6.1875 -2.25 C 6.1875 -2.726562 6.296875 -3.160156 6.515625 -3.546875 C 6.742188 -3.929688 7.050781 -4.238281 7.4375 -4.46875 C 7.820312 -4.695312 8.257812 -4.8125 8.75 -4.8125 C 9.238281 -4.8125 9.675781 -4.695312 10.0625 -4.46875 C 10.457031 -4.238281 10.765625 -3.929688 10.984375 -3.546875 C 11.210938 -3.160156 11.328125 -2.726562 11.328125 -2.25 C 11.328125 -1.769531 11.210938 -1.332031 10.984375 -0.9375 C 10.765625 -0.539062 10.457031 -0.226562 10.0625 0 C 9.675781 0.226562 9.238281 0.34375 8.75 0.34375 C 8.257812 0.34375 7.820312 0.226562 7.4375 0 C 7.050781 -0.226562 6.742188 -0.539062 6.515625 -0.9375 C 6.296875 -1.332031 6.1875 -1.769531 6.1875 -2.25 Z M 6.1875 -2.25 "/></g></g></g></g></g></svg>